<?xml version='1.0' encoding='utf-8'?>
<svg xmlns="http://www.w3.org/2000/svg" version="1.1" width="600px" height="976px" viewBox="0 0 600 976"> <g id="layer1"> <g style="fill:rgb(0,0,0); fill-opacity:1.0; stroke-linejoin: miter"> <path d="M342.8667,307.77704C342.89807,307.7771,342.93054,307.77847,342.96378,307.78122C343.06897,307.78375,343.12616,307.83307,343.0885,307.88116C343.0379,307.94238,342.84012,307.9817,342.68622,307.98138C342.57553,307.98114,342.48758,307.9604,342.49353,307.91257C342.50366,307.83142,342.66138,307.7766,342.8667,307.77704 Z M318.4648,338.44843Q318.46497,338.44843,318.4651,338.44843L318.4939,338.44885Q320.75284,338.52478,322.32648,340.12094Q322.9115,340.7481,323.27142,341.46243L323.27014,341.46243C323.54285,342.21216,323.62378,342.6834,323.70532,343.54895C323.76797,344.1252,323.73315,344.78363,323.62512,345.4486L323.62387,345.4486Q323.23532,346.7659,322.1751,347.82898Q320.5306,349.3546,318.3302,349.34998Q318.32172,349.34998,318.31317,349.34995Q316.05377,349.2801,314.47546,347.6872Q312.9441,346.05347,312.94556,343.82254Q312.99292,341.6059,314.60794,339.97882Q316.2542,338.4438,318.4648,338.44843 Z M388.63556,356.52512C389.62512,356.5272,390.33197,356.70844,391.1441,357.08905C391.8188,357.42505,392.56543,357.6888,392.7837,357.68927C392.78403,357.68927,392.78436,357.68927,392.78467,357.68927C392.78506,357.68927,392.78546,357.68927,392.7859,357.68927C393.00397,357.68973,393.60583,357.9054,394.13568,358.1452C394.66656,358.4096,395.48676,358.6735,395.9933,358.76917C396.9098,358.93646,399.05862,360.7174,399.05957,361.32022C399.0598,361.46484,398.84344,361.851,398.57874,362.18896C398.24182,362.62354,398.09802,363.17838,398.0995,364.0946C398.1011,365.10724,397.9812,365.4933,397.52386,366.00037C397.21094,366.33844,396.89835,366.86935,396.82648,367.15884C396.2516,369.57095,395.94073,371.18695,395.94174,371.83795C395.94238,372.24786,395.82245,372.63385,395.6778,372.6823C395.43686,372.755,395.1729,373.57532,394.7423,375.6978C394.62268,376.27667,394.3106,377.1693,394.0222,377.74847C393.75784,378.30347,393.5419,378.95483,393.54227,379.19592C393.54266,379.4371,393.44647,379.6301,393.32593,379.6303C393.10892,379.63065,392.82123,380.69208,392.72693,382.01834C392.66473,382.80548,392.24103,383.20557,391.63525,383.2043C391.0904,383.2032,390.39813,382.87723,389.68915,382.2161C389.2303,381.78275,388.45792,381.27765,387.9995,381.10956C386.9379,380.67725,386.5514,380.21976,386.55,379.35175C386.54944,378.9903,386.4526,378.67722,386.33215,378.67694C386.3321,378.67694,386.33197,378.67694,386.3319,378.67694C386.33182,378.67694,386.3318,378.67694,386.33173,378.67694C386.21112,378.6767,386.04187,378.2672,385.92053,377.76135C385.67758,376.60437,385.62424,358.2552,385.86404,357.4109C385.98383,356.90436,386.20056,356.73523,386.82736,356.66193C387.54056,356.57056,388.1256,356.52405,388.63556,356.52512 Z M371.01398,492.62003C371.0268,492.62195,371.04126,492.66385,371.05756,492.75104C371.15497,493.35373,371.37335,494.2214,371.51874,494.67926C371.6642,495.16138,371.78772,497.0418,371.76678,499.01907C371.77097,501.65424,371.63843,503.19833,371.46832,503.198C371.3894,503.19785,371.30234,502.86514,371.21716,502.15454C370.99005,500.36096,370.83698,492.6453,371.01224,492.62003 Z M341.38904,306.85767C341.1791,306.85724,341.03714,306.89722,340.81616,306.97534C340.15375,307.20944,339.58362,307.55,339.56287,307.71628C339.54477,307.8618,339.84363,308.00458,340.30865,308.08362C340.5581,308.1147,340.50226,308.1394,340.05023,308.20972C339.35266,308.30225,338.0993,308.70544,337.29016,309.10065C336.48236,309.48553,333.9241,311.6364,333.4723,312.29776C333.08282,312.8825,332.46765,314.26233,332.26532,315.03925C331.74133,317.04254,331.19238,318.39893,330.53287,319.37213C330.39136,319.5761,329.73816,320.15967,329.0746,320.65747C326.4878,322.61487,325.92804,323.12555,325.6425,323.7232C325.3998,324.2312,325.51044,324.78326,325.90942,325.13904C326.44202,325.5987,327.52692,325.8242,328.82587,325.8269C329.33487,325.82797,329.87677,325.79483,330.4312,325.72815L330.43256,325.72815C330.50418,326.39996,330.68604,327.0359,330.98578,327.5511C331.42096,328.27377,331.76056,329.52707,331.88318,330.853C332.05518,332.85403,333.0971,336.05927,334.08826,337.69733C334.64435,338.6368,335.12793,339.47998,335.1281,339.57645C335.12854,339.84164,336.91534,341.43024,337.66336,341.79068C338.04953,342.00708,338.7736,342.46408,339.2323,342.825C339.69098,343.18597,340.27026,343.5467,340.5115,343.61865C340.72867,343.71478,340.92178,343.88324,340.922,344.00378C340.92233,344.19666,337.57355,345.9622,337.21185,345.96277C337.13953,345.9629,336.48892,346.22916,335.7661,346.56787C335.04327,346.90662,334.34448,347.17294,334.22394,347.17313C333.83813,347.1737,333.30927,348.18726,332.97382,349.53806C332.61432,350.91302,332.85858,352.86572,333.56012,354.31134C333.82623,354.84134,333.85138,355.51645,333.70947,357.22864C333.61493,358.43442,333.44788,359.54382,333.37576,359.6886C333.27954,359.83344,333.20947,361.25616,333.212,362.84753C333.23975,365.11404,333.16846,365.78928,332.90338,365.88617C332.7106,365.9588,332.42194,366.36914,332.27792,366.7793C332.1098,367.2136,331.89368,367.7685,331.79767,368.03387C331.12524,369.7469,330.35834,372.68982,330.3598,373.60602C330.36035,373.95703,330.3266,374.13776,330.1566,374.1374C329.9762,374.13702,329.6424,373.93274,329.0335,373.51166C327.97144,372.79004,327.101,371.32056,326.3981,369.00696C326.13165,368.21167,325.7439,367.0067,325.50165,366.30783C325.21112,365.53668,325.1134,364.7653,325.20898,364.18643C325.3045,363.6317,325.15848,362.76385,324.84332,361.7035C324.55255,360.8118,324.21313,359.65497,324.09177,359.1247C323.89777,358.4499,323.53525,357.92004,322.81097,357.34247C322.23157,356.8852,321.45877,356.11487,321.04803,355.6092C320.66144,355.10345,320.2027,354.69427,320.05795,354.67038C320.0572,354.67038,320.0564,354.67038,320.0556,354.67035C319.55072,354.6693,319.26096,354.0667,319.04205,352.6466C318.97067,352.22253,318.9251,351.929,318.91028,351.7292L318.90903,351.72916Q321.72803,351.53424,323.83392,349.56598Q326.14258,347.28326,326.2478,344.05026Q326.2647,340.81485,324.05002,338.44812Q321.78223,336.15662,318.54202,336.0477L318.53687,336.0476Q315.28082,336.05194,312.96878,338.2228Q310.65558,340.50226,310.5451,343.73508Q310.52298,346.9704,312.73297,349.34036Q314.4841,351.1162,316.82016,351.58685L316.81897,351.58685C317.02942,351.90436,317.0643,352.29166,317.06573,353.20435C317.0675,354.31348,316.94785,354.86823,316.5869,355.35104C316.32227,355.71313,315.96228,356.7747,315.77087,357.71533C315.45984,359.23486,315.38904,360.22357,315.41833,363.45453C315.41895,363.84033,315.51617,364.34656,315.66125,364.58746C315.9994,365.23706,317.68484,366.24524,318.4098,366.24677C318.41074,366.24677,318.41168,366.24677,318.41266,366.24677C318.41528,366.24677,318.41785,366.24677,318.42047,366.24677C318.9443,366.24786,319.06744,366.44977,319.76685,368.70404C320.1789,370.07776,321.02673,372.53586,321.63217,374.1745C322.69775,377.1145,322.72205,377.21088,322.45892,378.5374C322.07605,380.3947,322.10083,380.80457,322.75513,382.8771C323.74686,386.0761,324.51917,387.20996,325.7446,387.21252C325.74704,387.21252,325.7495,387.21252,325.75195,387.21252C325.75317,387.21252,325.75443,387.21252,325.75568,387.21252C326.45575,387.214,327.7303,387.93344,327.7309,388.31854C327.7328,389.49835,331.84833,392.01813,333.7807,392.02216C333.78345,392.02216,333.78616,392.02216,333.78888,392.02216C334.70514,392.0207,334.92194,391.87567,336.75153,390.0161C339.7607,387.02155,341.4438,384.0048,342.6663,379.46985C342.8341,378.8667,343.05,378.1671,343.146,377.90173C343.26617,377.63635,343.65033,376.64713,344.01056,375.70618L344.68295,373.99316L345.6732,375.00427C346.20447,375.53387,347.17038,376.4245,347.8463,376.9298C348.49817,377.45923,349.24658,378.06085,349.48804,378.25336C349.75357,378.44586,350.4297,379.04752,351.03326,379.55292C352.1198,380.5157,352.1198,380.5157,352.0014,381.84198C351.88297,383.1925,351.71576,384.18134,350.9981,387.77515C350.8069,388.8364,350.4246,391.00714,350.18597,392.59888C349.92328,394.19067,349.54074,396.24078,349.32526,397.18152C348.84625,399.2077,348.27588,404.44092,348.2558,406.99683C348.258,408.34708,348.4039,409.14255,348.76697,410.00998C349.22675,411.0702,349.27628,411.88992,349.50574,419.72595C349.65793,424.42755,349.8589,429.46667,349.98175,430.93735C350.10455,432.38382,350.2774,434.89114,350.37634,436.4824C350.54944,439.39447,350.8153,440.21616,351.60773,440.2178C351.60916,440.2178,351.61057,440.2178,351.612,440.2178C351.61255,440.2178,351.61307,440.21783,351.6136,440.21783C351.78168,440.2182,351.9256,440.31427,351.92584,440.45847C351.92603,440.57867,352.07007,440.69858,352.26212,440.699C352.26266,440.699,352.26324,440.699,352.26373,440.699C352.2639,440.699,352.264,440.699,352.26416,440.699C352.45715,440.6994,352.77118,441.22922,352.9892,441.97583C353.3285,443.0603,354.1275,445.1327,354.82947,446.84354C354.95044,447.10858,355.09622,447.8076,355.16953,448.41028C355.56067,451.7853,357.01892,459.04068,357.4787,460.07678C358.25293,461.7393,358.4242,463.30634,358.45764,469.1413C358.46216,471.9865,358.58734,474.9039,358.73315,475.62704C358.8548,476.3261,358.9773,477.5073,358.97842,478.2307C358.9805,479.53278,359.1027,480.5453,359.97922,485.8967C360.247,487.51184,360.5639,489.6814,360.71027,490.718C360.83246,491.77875,361.05185,493.24918,361.17352,493.97235C362.68207,502.50565,362.95654,508.3162,362.04602,511.93442C361.8544,512.7304,361.4472,514.41895,361.18396,515.67316L360.68127,517.9646L358.0091,520.6695C356.51657,522.16675,355.0725,523.8568,354.7841,524.43604C354.0149,525.9321,353.8251,527.88556,354.33313,528.9457C355.29623,530.95984,355.63574,531.3511,356.63727,531.35315C356.6421,531.35315,356.6469,531.35315,356.65173,531.35315C356.65265,531.35315,356.65363,531.35315,356.6546,531.35315C356.99567,531.3539,358.1259,531.5686,359.18427,531.8314C360.67728,532.21277,361.64197,532.29346,365.41266,532.3013C365.90634,532.30237,366.44812,532.3021,367.0455,532.30115C370.3006,532.296,373.31445,532.17065,373.72412,532.04944C374.54358,531.8312,375.21783,531.2754,375.2172,530.86554C375.21698,530.7209,375.4807,529.78015,375.81665,528.76685C376.15265,527.7536,376.41586,526.49945,376.41504,525.99304C376.41425,525.4867,376.53406,525.0043,376.65454,524.9317C376.79904,524.85913,376.89496,524.5215,376.89447,524.208C376.89398,523.89453,376.96582,523.58093,377.08627,523.5326C377.08884,523.53064,377.09137,523.5297,377.09387,523.5297C377.18774,523.5299,377.28186,524.8297,377.30792,526.44977C377.35876,528.1134,377.43338,529.5118,377.4817,529.584C377.50528,529.59973,377.56982,529.60767,377.66446,529.60785C377.8603,529.6082,378.185,529.57556,378.5425,529.51L379.48267,529.3638L379.59637,525.0958C379.71143,521.5994,379.80618,520.5624,380.23837,519.40436C380.50238,518.6323,380.8869,517.81195,381.0794,517.5946C382.1385,516.43555,382.82977,511.41913,382.1761,509.7323C382.03082,509.37085,381.2815,508.19058,380.4599,507.0828L379.00995,505.0596L379.12634,502.45535C379.17236,501.03262,379.338,499.07935,379.45715,498.16287C379.57617,497.22232,379.8617,494.78656,380.09955,492.7366C380.3133,490.6868,380.59863,488.17868,380.74173,487.18988C380.86066,486.2011,381.0237,482.5599,381.09055,479.11188C381.2237,471.87802,381.22375,471.90216,378.96997,464.74442C378.07336,461.92474,377.53857,459.2492,377.293,456.4044C376.9496,452.73984,376.94684,451.02792,377.26035,451.02744C377.40503,451.0272,377.5006,450.4966,377.4996,449.86966C377.4968,448.10953,378.67215,444.24973,379.46655,443.45276C379.68323,443.23538,380.11694,443.0659,380.45456,443.0654C381.51547,443.06366,381.77972,442.46048,382.78497,437.75708C382.88068,437.29874,383.14435,436.28568,383.36005,435.5137C384.72668,430.59268,387.8175,418.29062,387.8166,417.73605C387.8158,417.2297,388.94373,413.8281,392.592,403.3336L394.80026,396.98862L394.12317,395.76C393.76038,395.06134,393.2287,394.26648,392.93884,393.9535C392.67313,393.66455,392.238,392.966,391.97195,392.43594C391.72998,391.88196,391.44012,391.44855,391.34354,391.4483C391.3435,391.4483,391.34344,391.4483,391.3434,391.4483C391.34326,391.4483,391.3431,391.4483,391.34296,391.4483C391.22266,391.44806,391.1502,391.2796,391.1499,391.0629C391.14954,390.8459,390.95615,390.5086,390.73883,390.34015C389.9905,389.7627,390.9542,389.27893,392.85907,389.27582C395.63193,389.27148,395.7524,389.22302,397.678,387.1222C397.91867,386.83246,398.13507,386.47046,398.13483,386.3017C398.13458,386.15704,398.35095,385.74677,398.59155,385.43292C398.87555,385.05304,399.00446,384.9222,399.7052,384.92368C400.07324,384.92444,400.59903,384.96173,401.38788,385.0186C401.8505,385.0478,402.25146,385.06427,402.59805,385.06497C404.20282,385.06833,404.64258,384.7355,404.64108,383.78375C404.64063,383.4944,404.76074,383.2289,404.8813,383.2287C405.026,383.2285,405.12155,382.67377,405.12045,381.9987C405.11856,380.79303,405.8371,377.77792,406.31793,376.9091C406.46228,376.66776,406.55814,376.28183,406.55768,376.01654C406.55725,375.75134,406.70135,375.3894,406.86987,375.2204C407.1587,374.93057,407.66144,372.61502,408.593,367.06778C408.87973,365.4277,408.95163,365.16235,409.31274,364.8001C409.698,364.4378,410.03345,363.13525,410.39142,360.79584C410.48676,360.0723,410.70193,358.96277,410.86975,358.33563C411.32498,356.5265,411.0805,354.3809,410.2344,353.03195C409.84775,352.40594,409.41315,351.8764,409.2683,351.8761C409.26822,351.8761,409.26816,351.8761,409.26813,351.8761C409.268,351.8761,409.26788,351.8761,409.26776,351.8761C409.12262,351.8758,408.59192,351.5152,408.06122,351.08234C407.55414,350.64914,406.73346,350.09583,406.27493,349.87958C405.81647,349.63916,405.26147,349.37488,405.0684,349.25458C403.9865,348.6798,403.59924,348.51068,403.26257,348.51C403.2613,348.51,403.26004,348.51,403.2588,348.51C403.25824,348.51,403.25766,348.51,403.25714,348.51C403.06488,348.50958,402.89697,348.38968,402.89673,348.26947C402.89655,348.1253,402.7288,348.02933,402.53674,348.02893C402.53604,348.02893,402.53534,348.02893,402.53467,348.02893C402.53412,348.02893,402.53354,348.02893,402.53296,348.02893C402.04883,348.02792,400.48392,347.2603,400.48355,347.01947C400.48337,346.9234,400.31567,346.82755,400.12366,346.82715C400.12296,346.82715,400.12228,346.82715,400.12158,346.82715C400.12097,346.82715,400.12042,346.82715,400.11984,346.82715C399.9262,346.82672,399.51764,346.70703,399.2049,346.53928C398.91525,346.39502,398.50507,346.20282,398.312,346.10666C398.11902,346.01053,397.41916,345.64996,396.79172,345.3134C395.9344,344.81512,395.3124,344.6686,394.27676,344.66644C394.26285,344.66644,394.24887,344.66644,394.2348,344.66644C394.20853,344.6665,394.18274,344.6665,394.15735,344.66644C392.99353,344.664,392.72113,344.55652,391.87048,343.8263C391.31577,343.36954,390.68896,342.98508,390.4713,342.98462C390.4711,342.98462,390.4709,342.98462,390.47064,342.98462C390.4702,342.98462,390.46976,342.98462,390.4693,342.98462C390.25168,342.98413,389.7704,342.79227,389.4331,342.52814C389.071,342.28754,387.47833,341.4462,385.88562,340.653C382.60385,339.04272,381.90393,338.63397,381.90344,338.34464C381.90326,338.22406,381.5893,337.88696,381.2271,337.5741C380.86496,337.26123,380.406,336.7556,380.2367,336.41827C379.87036,335.7249,379.33862,335.37762,378.68335,335.37628C378.47345,335.37585,378.2508,335.4109,378.01685,335.48148C377.55896,335.6269,375.8957,335.87067,374.3045,336.01785C372.71338,336.18915,370.97775,336.45715,370.44757,336.6509C369.91733,336.8205,368.63968,336.99133,367.62698,336.99295C366.61426,336.9945,365.72232,337.0924,365.6502,337.21307C365.578,337.33374,365.0237,337.50342,364.42102,337.57675C364.15625,337.61792,363.94495,337.64178,363.75818,337.6414C363.28162,337.64038,362.964,337.4816,362.32242,337.0496C361.1156,336.25586,358.55798,335.1989,357.15912,334.93597C356.6526,334.84033,356.00122,334.62433,355.73572,334.456C355.47113,334.2642,355.03894,334.12054,354.77347,334.12C354.77255,334.12,354.77167,334.12,354.7707,334.12C354.76862,334.12,354.76654,334.12,354.76447,334.12C354.36157,334.11914,354.4369,333.97217,355.20337,333.25122C355.9256,332.55084,356.09387,332.2371,356.09265,331.4655C356.09186,330.95917,355.99466,330.4771,355.87396,330.40497C355.75323,330.30872,355.48712,329.75455,355.2691,329.128C354.9062,328.08984,354.88312,328.0028,355.37592,327.48022L355.3775,327.48022C356.37744,327.828,357.30484,328.01227,357.99103,328.01367C358.45227,328.01465,358.80457,327.93298,358.99652,327.76288C359.1394,327.63287,359.26923,327.43805,359.28088,327.34448C359.3184,327.0431,358.9583,326.37555,358.12262,325.20544C357.73853,324.67087,357.24634,323.95343,356.92786,323.48273L356.92627,323.48273C356.9633,323.26746,357.01172,323.03217,357.0675,322.80774C357.28296,321.86707,357.23438,321.62604,356.58118,320.25266C356.25873,319.5803,355.7521,318.82037,355.22708,318.16257L355.22546,318.16257C355.19046,317.9526,355.16437,317.76508,355.15128,317.62683C354.9359,315.03534,353.81134,312.79492,351.90756,311.21735C351.27737,310.685,349.7818,309.81268,349.13483,309.58435C348.78143,309.45587,348.58655,309.32605,348.49548,309.12476C348.3343,308.80914,347.5534,308.30023,346.21777,307.66943C345.30048,307.23944,344.8236,307.065,344.44858,307.0642C344.3221,307.06396,344.20728,307.08344,344.091,307.1195C343.9824,307.1524,343.8701,307.16925,343.72458,307.16895C343.47336,307.16846,343.1231,307.1168,342.52176,307.00845C341.93225,306.9074,341.61963,306.85815,341.38904,306.85767 Z"/> </g> </g> </svg>