<svg width="68" height="119" viewBox="0 0 68 119" fill="none" xmlns="http://www.w3.org/2000/svg">
<path d="M35.9828 0L35.877 0.581604C35.7494 1.1403 36.0698 1.9303 36.3671 1.9303C36.398 1.9303 36.4287 1.92172 36.4586 1.90344C36.7407 1.72717 36.6525 0.828366 36.3177 0.387726L35.9828 0ZM42.7512 3.13174C42.6849 3.13174 42.4747 3.26303 42.222 3.4368C41.8871 3.68353 41.7461 3.9303 41.7461 4.31805C41.7461 4.62573 41.7524 4.75458 41.8383 4.75458C41.895 4.75458 41.9865 4.69824 42.1338 4.60004C42.4687 4.3709 42.9269 3.2958 42.7683 3.13718C42.7646 3.1335 42.7589 3.13174 42.7512 3.13174ZM32.1193 3.66904C32.0369 3.66904 31.9439 3.79491 31.8057 4.07129C31.6295 4.42379 31.559 4.81152 31.6295 5.07593C31.6882 5.3207 31.7198 5.4295 31.7906 5.4295C31.8473 5.4295 31.9291 5.35986 32.0701 5.2345C32.4226 4.91727 32.5107 4.19467 32.2463 3.77167C32.2036 3.70447 32.1629 3.66904 32.1193 3.66904ZM24.4386 4.28281C24.3505 4.28281 24.2976 4.42383 24.2976 4.60007C24.2976 5.07596 24.8087 5.69278 25.1965 5.69278C25.4785 5.69278 25.5313 5.62229 25.4432 5.28745C25.3198 4.91731 24.703 4.30046 24.4386 4.28281ZM28.3914 6.29764C28.3251 6.29764 28.206 6.403 27.9635 6.62686C27.4451 7.11478 27.296 7.86649 27.6304 7.86649C27.6825 7.86649 27.7464 7.8482 27.8225 7.80777C28.2631 7.57858 28.5627 7.0146 28.4922 6.53873C28.4674 6.38107 28.4503 6.29764 28.3914 6.29764ZM43.1561 7.84299C42.9093 7.84299 42.8212 7.87823 42.9445 7.93112C42.9974 7.94873 43.0768 7.95755 43.1583 7.95755C43.2398 7.95755 43.3235 7.94873 43.3852 7.93112C43.4909 7.87823 43.4028 7.84299 43.1561 7.84299ZM25.9675 7.77792C25.9374 7.77792 25.9191 7.9186 25.9191 8.16025C25.9191 8.39645 25.9366 8.53619 25.9655 8.53619C25.9776 8.53619 25.9916 8.5118 26.0072 8.45987C26.0424 8.30124 26.0424 8.01926 26.0072 7.84302C25.9925 7.79886 25.9791 7.77792 25.9675 7.77792ZM10.9758 8.58179C10.9298 8.58179 10.9028 8.60909 10.9028 8.67139C10.9028 9.16489 11.4315 10.0637 11.7664 10.1519C11.8549 10.1751 11.9238 10.1886 11.9762 10.1886C12.1219 10.1886 12.1402 10.0846 12.1013 9.79935C12.0565 9.41153 11.229 8.58179 10.9758 8.58179ZM19.4525 9.41257C19.308 9.41257 19.1608 9.4739 18.9573 9.58786C18.4814 9.86984 18.9044 10.2752 19.6447 10.2752C20.3849 10.2752 20.5435 10.0285 20.0324 9.67599C19.7858 9.49579 19.6209 9.41257 19.4525 9.41257ZM12.902 10.1668C12.8598 10.1668 12.8639 10.2337 12.8944 10.3634C12.9473 10.5572 13.0354 10.9626 13.1059 11.2622C13.1764 11.6147 13.3526 11.8614 13.5641 11.9143C13.6086 11.9264 13.6487 11.9322 13.6848 11.9322C14.1212 11.9322 13.955 11.0917 13.3526 10.522C13.0926 10.282 12.9575 10.1668 12.902 10.1668ZM47.1039 10.8921L46.8925 11.4737C46.681 12.0729 46.8572 12.9189 47.2097 12.9189C47.5093 12.9189 47.5975 12.1082 47.3331 11.4913L47.1039 10.8921ZM54.0472 11.7013C53.9372 11.7013 53.7411 11.8428 53.4665 12.1258C52.9906 12.584 52.8849 13.2714 53.2726 13.2714C53.5899 13.2714 53.8895 12.9013 54.0833 12.2315C54.1857 11.878 54.1702 11.7013 54.0472 11.7013ZM39.9795 14.5135C39.8447 14.5135 39.8053 14.6726 39.8779 14.981C40.0012 15.4568 40.5652 16.0914 40.8825 16.0914C41.1997 16.0914 41.0235 15.3511 40.6005 14.9457C40.3182 14.6549 40.1065 14.5135 39.9795 14.5135ZM63.1014 14.5238C62.9956 14.5238 62.8202 14.6527 62.5785 14.9106C62.2084 15.3159 62.0498 16.0914 62.3318 16.0914C62.6666 16.0914 63.072 15.6155 63.1777 15.0692C63.2543 14.7056 63.227 14.5238 63.1014 14.5238ZM35.0442 16.4696C34.9394 16.4717 34.9622 16.6484 35.0663 17.0078C35.1544 17.3251 35.4012 17.7305 35.6303 17.8891C35.7914 18.0195 35.8857 18.0898 35.9452 18.0898C36.0224 18.0898 36.041 17.9716 36.0709 17.7128C36.1238 17.3603 36.0004 17.1488 35.6303 16.8492C35.3243 16.5996 35.1397 16.4713 35.0479 16.4696H35.0442ZM37.5253 18.5824C37.4972 18.586 37.5802 18.6822 37.7629 18.8937C37.9812 19.1338 38.1049 19.2455 38.1674 19.2455C38.2058 19.2455 38.2211 19.2033 38.2211 19.1228C38.2211 19.0523 38.0449 18.8937 37.8334 18.7527C37.6579 18.6459 37.5583 18.5853 37.529 18.5824H37.5253ZM1.28381 20.7988C1.05011 20.7988 0.764148 20.8564 0.521818 20.9734C-0.218432 21.3435 -0.165569 21.555 0.6452 21.555C1.26205 21.555 1.73791 21.3083 1.73791 21.0087C1.73791 20.8696 1.54296 20.7988 1.28381 20.7988ZM57.1836 21.7313C57.0246 21.7324 56.744 21.8906 56.5508 22.0838C56.1631 22.4715 56.0749 23.1413 56.4274 23.1413C57.0612 23.1237 57.818 21.7346 57.1876 21.7313H57.1836ZM22.5528 21.9252L22.7466 22.4539C22.9012 22.9175 23.5027 23.4758 23.7912 23.4758C23.8318 23.4758 23.8661 23.4648 23.8922 23.4409C24.139 23.1765 23.7336 22.4892 23.1696 22.2072L22.5528 21.9252ZM26.8612 21.459C26.7804 21.459 26.7651 21.6128 26.7651 21.9957C26.7651 22.3658 26.9061 22.824 27.0999 23.0708L27.4348 23.4938L27.5229 23.0179C27.6287 22.4539 27.4348 21.9076 27.0471 21.5727C26.9628 21.5004 26.9031 21.459 26.8612 21.459ZM60.3422 23.7538C60.2746 23.7538 60.252 23.807 60.252 23.9168C60.252 24.4102 60.6398 25.0447 61.0628 25.2386C61.2092 25.3045 61.307 25.34 61.3712 25.34C61.4617 25.34 61.4857 25.2698 61.4857 25.1152C61.4857 24.7275 61.0452 24.0754 60.5869 23.8463C60.4722 23.7851 60.394 23.7538 60.3422 23.7538ZM62.9041 25.801C62.8096 25.801 62.6476 25.8906 62.4022 26.067C62.1908 26.208 62.0145 26.49 62.0145 26.6662C62.0145 26.8425 61.944 27.0187 61.8383 27.054C61.7502 27.0892 61.7325 27.2126 61.8206 27.336C61.8534 27.3925 61.9037 27.4179 61.9654 27.4179C62.2692 27.4179 62.8491 26.8029 62.9662 26.2609C63.0359 25.9522 63.0269 25.801 62.9041 25.801ZM2.70608 26.8756C2.60427 26.8756 2.45095 26.9077 2.23141 26.9658C1.91418 27.0363 1.64978 27.7061 1.77316 28.0762C1.78713 28.1209 1.82061 28.1408 1.86755 28.1408C2.11657 28.1408 2.74447 27.5805 2.84826 27.1949C2.90411 26.9716 2.88211 26.8756 2.70608 26.8756ZM43.3448 27.362C43.0168 27.362 42.5463 27.4764 42.3806 27.6532C41.9576 28.0585 42.0457 28.2524 42.5921 28.2524C43.0503 28.2524 43.6848 27.8118 43.6848 27.4946C43.6848 27.4025 43.54 27.362 43.3448 27.362ZM47.75 26.5059C47.6318 26.5059 47.5622 26.6651 47.5622 26.9834C47.5622 27.4801 48.1555 28.4612 48.3787 28.4612C48.4247 28.4612 48.455 28.4194 48.4611 28.3229C48.4963 27.6884 48.4082 27.283 48.1614 26.8777C47.9962 26.6298 47.8542 26.5059 47.75 26.5059ZM58.8421 28.0762C58.3133 28.0762 58.3133 28.0762 58.5953 28.5168C58.8362 28.8845 59.1591 29.088 59.4723 29.088C59.5945 29.088 59.7153 29.057 59.8291 28.9927C60.0934 28.8517 60.0934 28.7988 59.7409 28.4463C59.5294 28.2348 59.1417 28.0762 58.8421 28.0762ZM0.416075 29.6448L0.909544 30.0854C1.23072 30.3836 1.48468 30.54 1.62289 30.54C1.69708 30.54 1.73791 30.495 1.73791 30.4026C1.7203 30.103 1.43829 29.8563 0.944792 29.7505L0.416075 29.6448ZM8.79825 29.8735C8.63972 29.8735 8.4855 29.9792 8.08285 30.244L7.46597 30.6318L8.13571 30.6847C8.21295 30.6904 8.28597 30.6933 8.35522 30.6933C8.71269 30.6933 8.96888 30.6151 9.1756 30.4379C9.49284 30.1383 9.49283 30.1031 9.1932 29.9973C9.01046 29.92 8.90343 29.8735 8.79825 29.8735ZM56.6047 30.0676C56.5602 30.0676 56.4854 30.1513 56.3393 30.3145C56.0044 30.6847 55.9163 31.2486 56.1807 31.2486C56.4627 31.2486 56.7623 30.7375 56.6918 30.3498C56.6647 30.1601 56.6515 30.0676 56.6047 30.0676ZM26.3101 32.9027C26.2638 32.9027 26.2363 32.9252 26.2363 32.9758C26.2363 33.4693 26.6593 34.2272 27.0294 34.3858C27.1884 34.4615 27.2921 34.5014 27.3586 34.5014C27.4471 34.5014 27.4701 34.4309 27.4701 34.2801C27.4701 34.1038 27.3467 33.7866 27.188 33.5751C26.9499 33.2389 26.4892 32.9027 26.3101 32.9027ZM4.1867 33.5398C4.11743 33.5424 4.1353 33.8056 4.22302 34.1038C4.38802 34.6931 4.79743 35.1091 5.0505 35.1091C5.17587 35.1091 5.26288 35.007 5.26288 34.7735C5.26288 34.422 4.49151 33.5445 4.19015 33.5398H4.1867ZM21.4776 32.4647V33.1873C21.4776 33.5927 21.601 34.1743 21.742 34.4739C22.0547 35.1159 22.9977 35.7885 23.5373 35.7885C23.5755 35.7885 23.6117 35.7852 23.6455 35.7782C24.0332 35.7077 24.0332 35.7077 23.6455 35.6724C23.293 35.6548 23.2401 35.549 23.2401 34.9322C23.2401 34.1214 22.8171 33.4164 22.0064 32.8348L21.4776 32.4647ZM16.4668 34.3236C16.3823 34.3236 16.2936 34.4082 16.2079 34.5797C15.9435 35.0555 15.9611 35.5667 16.2607 35.8134C16.3212 35.8618 16.3812 35.8837 16.4382 35.8837C16.7136 35.8837 16.9209 35.3727 16.7895 34.8617C16.7056 34.5054 16.5907 34.3236 16.4668 34.3236ZM64.8521 36.0073C64.7816 36.0073 64.4996 36.2364 64.2176 36.5184C63.7946 36.9767 63.7417 37.1529 63.8299 37.7698C63.8827 38.1751 63.9709 38.5453 64.0061 38.5981C64.0336 38.6231 64.0691 38.6346 64.1106 38.6346C64.3619 38.6346 64.8292 38.211 65.0107 37.7874C65.2222 37.241 65.1165 36.0073 64.8521 36.0073ZM63.1449 39.9157C63.1057 39.9157 63.0757 40.0138 63.0896 40.1667C63.0896 40.2862 63.1097 40.3521 63.1375 40.3521C63.1548 40.3521 63.1751 40.3266 63.1954 40.2725C63.2483 40.1491 63.2306 39.9905 63.1777 39.9376C63.1666 39.9227 63.1554 39.9157 63.1449 39.9157ZM9.27994 39.9024C9.2392 39.9054 8.9602 40.0275 8.64685 40.1667C8.08285 40.4135 7.5541 41.189 7.80087 41.4181C7.83511 41.4523 7.88235 41.4681 7.93875 41.4681C8.25973 41.4681 8.87759 40.9584 9.08746 40.4487C9.20288 40.1685 9.28743 39.9191 9.28345 39.9024H9.27994ZM67.0375 41.9996C66.7908 41.9996 66.4383 42.1583 66.2444 42.3522C65.7862 42.8104 65.8038 43.0572 66.2973 43.0572C66.7908 43.0571 67.0199 42.8985 67.2843 42.3874C67.4781 42.0349 67.4429 41.9996 67.0375 41.9996ZM8.13394 46.7482C7.84274 46.7482 7.4254 46.8922 7.07825 47.199L6.58475 47.622L7.30737 47.6396C7.78323 47.6396 8.1181 47.5339 8.31198 47.3224C8.6463 46.9498 8.47846 46.7482 8.13394 46.7482ZM47.9147 48.1507V48.7852C47.9147 49.1376 48.0204 49.6488 48.1614 49.9132C48.4095 50.3597 49.4801 51.3184 49.7276 51.3184C49.7439 51.3184 49.7566 51.3142 49.7653 51.3055C49.8182 51.2703 49.7829 50.8297 49.6948 50.3185C49.5362 49.3492 49.1837 48.8204 48.4082 48.4151L47.9147 48.1507ZM49.4635 52.2287C49.218 52.2287 48.9789 52.2783 48.8136 52.3806C48.6197 52.504 48.6902 52.6098 49.1132 52.8213C49.3575 52.9483 49.5259 53.0103 49.6906 53.0103C49.823 53.0103 49.9529 52.9703 50.1178 52.8918C50.5584 52.6979 50.576 52.6626 50.2764 52.4511C50.0814 52.3048 49.7676 52.2287 49.4635 52.2287ZM31.7684 52.3065C31.9309 52.3396 32.0555 52.3716 32.1422 52.4022C32.2559 52.4489 32.372 52.4954 32.4907 52.5418H32.4869C32.5829 52.6263 32.6628 52.6853 32.6953 52.6853C32.6954 52.6853 32.6955 52.6853 32.6956 52.6853C32.6956 52.6853 32.6957 52.6853 32.6958 52.6853C32.9095 52.6853 34.2512 56.4255 35.4898 60.4477C35.651 60.9784 35.7265 61.6263 35.8355 63.4553C36.0407 66.8617 36.0316 66.9103 35.3487 68.1192C35.0357 68.675 34.7312 69.124 34.6731 69.1247C34.6723 69.1247 34.6714 69.1247 34.6706 69.1247C34.4284 69.1247 34.048 68.7143 33.9373 68.3297C33.7552 67.6733 33.8636 67.0135 34.2811 66.2919C34.4804 65.9506 34.757 65.5987 34.9012 65.5098C35.209 65.3318 35.5079 64.4083 35.3965 64.0028C35.356 63.8581 35.2916 63.3262 35.2467 62.8038C35.1024 61.2658 34.5111 60.3916 33.2756 59.9221C32.8958 59.7821 32.5448 59.7108 32.2022 59.7108C31.7638 59.7108 31.3391 59.8276 30.8853 60.0667C29.7112 60.6811 29.2287 61.6359 29.1725 63.4281C29.1473 64.5615 29.2811 65.228 29.6236 65.5242C29.751 65.6486 29.9677 65.9559 30.1064 66.2254C30.2451 66.4852 30.4432 66.8605 30.5423 67.0433C30.651 67.226 30.7415 67.5058 30.7434 67.6704C30.7411 68.2902 30.1416 69.1786 29.7059 69.1838C29.7058 69.1838 29.7056 69.1838 29.7055 69.1838C29.6083 69.1838 29.333 68.8097 28.9875 68.2239L28.4144 67.2624L28.4039 66.3716C28.4077 65.8777 28.4378 65.1606 28.4819 64.7921C28.5354 64.4138 28.6015 63.4543 28.6404 62.6597C28.728 61.0608 28.774 60.8666 30.0846 56.251C30.8841 53.4525 31.1098 52.8882 31.6081 52.4464C31.6621 52.3967 31.7154 52.3492 31.7647 52.3065H31.7684ZM30.2458 89.4452C30.5308 89.4452 31.0155 89.5692 31.2286 89.7153C31.4629 89.8771 31.4929 89.9543 31.499 90.4675L31.5058 91.0387L31.1855 90.9844C31.1418 90.978 31.0871 90.9751 31.0254 90.9751C30.827 90.9751 30.5551 91.0057 30.3342 91.0526C30.1039 91.1016 29.8458 91.1268 29.5066 91.1268C29.2767 91.1268 29.0095 91.1152 28.6884 91.0916C28.0777 91.0408 27.1957 90.9835 26.721 90.9602C26.2557 90.927 25.9064 90.873 25.9446 90.8242C25.9926 90.7848 26.4265 90.6344 26.8993 90.4834C28.0376 90.1213 29.9577 89.5175 30.083 89.4675C30.1218 89.4522 30.1782 89.4452 30.2458 89.4452ZM38.2028 2.51105C37.9539 2.51105 37.5152 2.69238 37.1813 2.97858C36.6702 3.40155 36.6349 3.50729 36.6349 4.72339C36.6349 5.77764 36.5326 6.47379 36.4228 6.47379C36.3748 6.47379 36.3253 6.3404 36.2824 6.04526C36.2119 5.60464 36.0357 5.32263 35.5951 5.04065C35.3118 4.8518 35.0982 4.75739 34.9543 4.75739C34.6954 4.75739 34.6622 5.0633 34.8548 5.67514C35.0311 6.30963 35.6127 6.96173 36.1414 7.138C36.3177 7.2085 35.3659 9.27056 34.8195 9.99319C34.7428 10.0936 34.6877 10.1544 34.6412 10.1544C34.549 10.1544 34.4902 9.91507 34.3613 9.27057C34.1498 8.19546 33.4448 6.92649 32.7222 6.29199L32.3345 5.95712L32.6341 6.39777C33.4145 7.5221 33.7581 8.14014 33.6203 8.14014C33.5744 8.14014 33.4754 8.07184 33.3215 7.93112C33.1159 7.73584 32.8564 7.63644 32.5989 7.63644C32.4148 7.63644 32.2318 7.68726 32.0701 7.7901C31.707 8.02118 32.5031 8.4841 33.1847 8.4841C33.2309 8.4841 33.2767 8.48196 33.3215 8.47748C33.3998 8.47168 33.4682 8.46826 33.5281 8.46826C33.8322 8.46826 33.9205 8.5561 34.0088 8.86523C34.2556 9.74646 34.1674 10.9802 33.8149 11.6852C32.7398 13.8001 32.7046 16.4615 33.7092 19.4224C34.0617 20.4447 34.3084 21.2906 34.2908 21.3259C34.2884 21.3283 34.2844 21.3295 34.2788 21.3295C34.2025 21.3295 33.8389 21.1104 33.4448 20.8148C33.0218 20.4975 32.0525 19.8807 31.277 19.4401C29.9727 18.6998 29.9022 18.6117 29.8494 17.9948C29.8141 17.325 29.3559 16.4438 29.0562 16.4438C28.9505 16.4438 28.88 16.8492 28.88 17.3427C28.88 17.9729 28.8702 18.1532 28.7122 18.1532C28.6581 18.1532 28.5867 18.132 28.4922 18.1006C26.9766 17.6424 26.1482 16.532 25.5137 14.0645C24.9497 11.9496 25.1436 10.1342 26.0072 9.1825C26.1834 8.98862 26.2011 8.86526 26.0953 8.86526C25.972 8.86526 25.7781 8.60086 25.6371 8.28363C25.5137 7.984 25.1436 7.4905 24.844 7.20853L24.2976 6.67978V7.43765C24.2976 8.08975 24.4033 8.30124 24.8968 8.77713L25.5137 9.34113L25.1612 10.4515C24.9849 11.0507 24.8264 11.7381 24.8264 11.9848C24.8264 12.1348 24.8158 12.2215 24.756 12.2215C24.6611 12.2215 24.4423 12.0034 23.9451 11.4737C23.2578 10.7335 23.0815 10.4162 23.0639 9.92273C23.0639 9.58786 22.9052 9.112 22.7114 8.86526C22.5414 8.64807 22.4524 8.54218 22.4037 8.54218C22.3614 8.54218 22.3494 8.62167 22.3412 8.77713C22.2731 9.47522 22.2708 10.1898 22.3343 10.1898C22.3365 10.1898 22.3389 10.1889 22.3412 10.1871C22.3459 10.1817 22.3527 10.1791 22.3613 10.1791C22.5787 10.1791 23.9998 11.8421 24.4915 12.6898C24.7735 13.1833 25.1612 14.135 25.3375 14.8048C25.5137 15.4569 25.7957 16.3029 25.9543 16.6906C26.167 17.1535 26.2287 17.2967 26.1331 17.2967C26.0941 17.2967 26.0287 17.2728 25.9367 17.237C25.7605 17.1489 24.5091 17.0608 23.152 17.0255C19.7857 16.9374 19.8738 16.9726 19.9972 16.0033C20.0853 15.3688 20.0324 15.0868 19.6623 14.4523C19.4156 14.0293 19.0807 13.5887 18.9397 13.4653C18.8647 13.4018 18.8086 13.3667 18.7633 13.3667C18.6703 13.3667 18.6231 13.515 18.5519 13.8707C18.3933 14.7695 18.6048 15.6508 19.0983 16.1266C19.5054 16.4998 19.615 16.6771 19.4086 16.6771C19.2932 16.6771 19.0792 16.6218 18.7634 16.5144C17.7412 16.1619 16.6661 15.2101 15.5734 13.6592C15.0975 12.9894 14.5335 12.3197 14.3396 12.1963C14.2943 12.1699 14.2627 12.1564 14.2446 12.1555H14.241C14.1824 12.1586 14.297 12.3245 14.5688 12.6369C14.8684 12.9894 15.1327 13.3067 15.1327 13.3419C15.1327 13.348 15.1239 13.3509 15.1075 13.3509C15.0284 13.3509 14.7726 13.2825 14.4806 13.1657C14.0596 13.0222 13.6282 12.9462 13.2428 12.9462C12.9183 12.9462 12.6265 13 12.4009 13.1128C12.2254 13.1954 12.1648 13.2296 12.2262 13.2296C12.2696 13.2296 12.374 13.2125 12.5419 13.1833C12.6237 13.1669 12.7006 13.159 12.7675 13.159C12.917 13.159 13.0178 13.1984 13.0178 13.2714C13.0178 13.3596 12.912 13.4477 12.771 13.4477C12.3833 13.4477 11.7135 14.0645 11.2729 14.8576L10.8499 15.6155L11.4139 15.5098C12.5771 15.2806 13.2293 14.8224 13.5818 14.0293C13.758 13.6063 13.9695 13.2714 14.0224 13.2714C14.0753 13.2714 14.463 13.4653 14.886 13.712C15.7144 14.2055 17.0715 15.9151 16.6132 15.9151C16.2431 15.9151 15.309 16.4263 15.309 16.6201C15.309 16.7512 15.4955 16.8094 15.7447 16.8094C16.1317 16.8094 16.67 16.669 16.8952 16.4439C17.0634 16.2757 17.1514 16.1877 17.2644 16.1877C17.3882 16.1877 17.5421 16.2932 17.8646 16.5144C18.2171 16.7611 18.7282 16.9902 19.0102 17.0608C19.5918 17.1841 19.7328 17.5014 19.2041 17.5014C18.4462 17.5014 16.3841 18.7527 15.4147 19.8102C14.8684 20.3918 14.4278 20.9382 14.4278 21.0263C14.4278 21.0733 14.2946 21.1046 14.0961 21.1046C13.9969 21.1046 13.8814 21.0968 13.758 21.0792C13.6247 21.0601 13.5094 21.0501 13.4087 21.0501C13.1364 21.0501 12.9702 21.1234 12.8415 21.2907C12.63 21.5374 12.63 21.6079 12.8592 21.7489C12.96 21.8179 13.1151 21.8485 13.2885 21.8485C13.6909 21.8485 14.1918 21.6834 14.3396 21.4493C15.6967 19.2638 17.4592 18.1535 20.6317 17.4309L21.1075 17.3251L20.6845 17.7834C20.4378 18.0477 20.2439 18.3121 20.2439 18.4002C20.2439 18.4707 20.191 18.647 20.1382 18.8056C20.05 19.0171 20.1381 19.0876 20.5083 19.0876C21.2133 19.0876 21.9888 18.5588 22.2179 17.9067C22.4117 17.3604 22.4823 17.3251 23.2401 17.3251C24.421 17.3251 26.4302 17.942 28.5804 18.9465C30.4134 19.8278 30.6601 20.004 30.29 20.2331C30.0609 20.3741 30.0609 20.9558 30.3076 21.414C30.4013 21.5929 30.4538 21.6853 30.509 21.6853C30.5679 21.6853 30.6298 21.5797 30.7482 21.3611C30.8716 21.132 30.9774 20.7971 30.995 20.6209C30.995 20.4507 31.015 20.3547 31.1089 20.3547C31.2484 20.3547 31.551 20.5665 32.1935 21.0615C33.392 21.9956 34.8195 23.67 35.2954 24.7275C35.8418 25.9612 35.9123 29.4157 35.4188 31.4601C35.0839 32.9053 34.0793 35.3023 33.8149 35.3023C33.7621 35.3023 33.2333 34.6149 32.6517 33.7689C31.6471 32.2708 31.6118 32.1827 31.559 30.8961C31.4885 29.2218 31.6471 28.7459 32.3345 28.6754C32.8103 28.6225 33.7621 27.7942 33.5682 27.6003C33.5594 27.5915 33.5319 27.5871 33.4897 27.5871C33.3633 27.5871 33.1056 27.6267 32.828 27.7061C32.5885 27.7745 32.4361 27.8097 32.3609 27.8097C32.2811 27.8097 32.288 27.7701 32.3697 27.6884C32.4931 27.5651 32.5812 27.0892 32.5812 26.631C32.5812 25.8555 32.5107 25.6792 31.7705 24.9037C31.3156 24.4139 30.8955 24.0282 30.8203 24.0225H30.8166C30.6436 24.0331 30.7845 25.3645 31.0302 26.014C31.136 26.2784 31.4708 26.6662 31.7705 26.8777C32.0701 27.0892 32.3521 27.283 32.3874 27.3007C32.4226 27.3359 32.2816 27.5827 32.0701 27.8823C31.5414 28.6049 30.995 29.8915 30.854 30.7022L30.7306 31.3896L29.585 30.7022C28.9505 30.3145 28.0693 29.8562 27.6111 29.6977C26.6241 29.3452 26.5007 28.9398 27.2938 28.6049C27.8049 28.3935 28.175 27.6708 27.9283 27.4065C27.9115 27.3897 27.8818 27.3819 27.8424 27.3819C27.7162 27.3819 27.4911 27.4619 27.2762 27.5827L26.7651 27.8823V27.2302C26.7651 26.631 26.9237 25.4325 27.188 24.1106C27.2415 23.8701 27.2634 23.7466 27.2538 23.7357H27.2502C27.2363 23.7453 27.198 23.8419 27.1352 24.0225C27.0294 24.2693 26.8708 24.8156 26.7651 25.2563L26.5536 26.0493L26.2363 25.4325C26.06 25.0976 25.6547 24.5689 25.3375 24.2869L24.7558 23.7581L25.267 24.375C26.1306 25.4501 26.4126 26.2609 26.4126 27.8471C26.4126 28.6578 26.3421 29.3099 26.2716 29.3099C25.9543 29.3099 23.1167 28.2877 22.447 27.9352C21.1956 27.2831 21.1604 27.2302 21.7068 27.0363C22.2355 26.8249 22.588 26.1375 22.4999 25.4677L22.447 25.0447L21.8301 25.4677C21.3719 25.7674 21.1956 26.0493 21.1252 26.49L21.037 27.0892L20.4907 26.4371C20.191 26.067 19.8385 25.4325 19.7328 25.0447C19.5918 24.5865 19.1688 23.9873 18.5696 23.388C18.0584 22.8769 17.6002 22.26 17.5297 22.0133C17.4349 21.6499 16.7734 21.0173 16.536 21.0173C16.5086 21.0173 16.4868 21.0257 16.4722 21.0439C16.437 21.0792 16.4898 21.3612 16.5603 21.6608C16.6661 22.0485 16.9657 22.3658 17.5826 22.7535C18.1818 23.1237 18.6224 23.5819 18.9926 24.234C19.4468 25.0074 19.6103 25.4388 19.4771 25.4388C19.419 25.4388 19.3047 25.3569 19.1335 25.1858C18.7821 24.8343 17.9114 24.5982 17.2104 24.5982C16.9622 24.5982 16.7354 24.6278 16.5603 24.6922C16.1374 24.8333 16.155 24.8509 17.001 25.503C17.6638 26.0152 17.8889 26.1282 18.4685 26.1282C18.567 26.1282 18.6758 26.125 18.7987 26.1198C18.9785 26.109 19.1247 26.1019 19.246 26.1019C19.719 26.1019 19.8152 26.2101 20.0677 26.631C20.4731 27.2831 21.3895 27.9881 22.6761 28.6049C23.1696 28.8517 23.575 29.1161 23.5926 29.1866C23.5926 29.2388 23.167 29.2609 22.5116 29.2609C20.513 29.2609 16.3782 29.0551 15.6615 28.8693C14.8507 28.6578 14.8507 28.6578 14.7979 27.6003C14.7803 27.1957 13.6564 25.7902 13.3543 25.785H13.3508C13.0185 25.7901 13.1948 27.1609 13.617 27.7766L14.0576 28.4111L13.1411 28.041C12.63 27.8471 11.7312 27.5298 11.1143 27.336C10.2683 27.0716 9.77481 26.7896 9.12271 26.1551C8.15335 25.221 8.06522 24.9919 8.6821 24.8333C9.31659 24.6746 9.84534 23.7053 9.84534 22.7183V21.8899L9.28134 22.1895C8.38248 22.6302 8.08285 22.9827 8.08285 23.5114C8.08285 23.8887 8.01555 24.0786 7.90362 24.0786C7.80112 24.0786 7.66125 23.9196 7.50125 23.5995C7.36023 23.2646 6.97251 22.7183 6.65524 22.3658C6.16178 21.8018 6.12648 21.6608 6.28512 21.2906C6.4261 20.991 6.42611 20.7091 6.32037 20.4094C6.20935 20.122 6.08376 19.9896 5.96972 19.9896C5.77596 19.9896 5.61535 20.3718 5.61535 21.0263V21.5198L4.82223 21.2202C4.18773 20.9734 3.94101 20.7619 3.62378 20.145C3.2793 19.4561 2.55923 18.7532 2.25451 18.7532C2.21623 18.7532 2.18451 18.7643 2.16092 18.7879C1.9318 19.0171 2.31951 19.8807 2.90115 20.4447C3.4299 20.9382 3.46513 21.0263 3.16553 21.0263C2.97163 21.0263 2.58394 21.2201 2.31952 21.4669L1.82605 21.8899L2.5134 21.9075C2.98929 21.9075 3.34177 21.7842 3.60614 21.5374C3.79938 21.359 4.03577 21.2726 4.30124 21.2726C4.98017 21.2726 5.84927 21.8379 6.67288 22.8769C7.07823 23.388 7.14873 23.5819 6.99011 23.7052C6.91397 23.7528 6.77223 23.7747 6.59207 23.7747C6.10501 23.7747 5.33683 23.6148 4.82223 23.3704C4.58917 23.2622 4.46618 23.205 4.43469 23.2028H4.43124C4.40552 23.2052 4.48483 23.2713 4.64599 23.4056C5.069 23.7405 6.03839 24.0225 6.81387 24.0225C7.34263 24.0225 7.41311 24.093 7.83609 25.0271C8.08285 25.5911 8.47062 26.2609 8.71734 26.5076L9.15796 26.9835L8.57635 27.0892C8.24148 27.1421 7.69508 27.336 7.34262 27.5298L6.70813 27.847L5.54486 27.3007C4.78698 26.9482 4.38162 26.6486 4.38162 26.4547C4.38162 26.2961 4.17013 25.9436 3.90576 25.6968C3.59097 25.41 3.37057 25.2676 3.25009 25.2662H3.24664C3.06764 25.2683 3.11651 25.5918 3.41226 26.2256C3.62377 26.6485 3.87051 26.8424 4.41687 27.0011C5.1571 27.2302 6.14413 27.8647 6.14413 28.1114C6.14413 28.3581 4.24063 29.68 3.37701 30.0325C2.97133 30.2041 2.77289 30.3205 2.90384 30.3205C2.92081 30.3205 2.94335 30.3186 2.97165 30.3145L3.4299 30.2616L3.09503 30.9137C2.91876 31.2662 2.72491 31.8478 2.67203 32.2003L2.56628 32.8524L3.18313 32.4999C4.17013 31.9183 4.59314 31.3367 4.68124 30.4908C4.76938 29.7681 4.85748 29.6448 5.87973 28.8869C7.28973 27.8647 8.02996 27.5475 9.10507 27.5475C10.0039 27.5475 11.9426 27.9881 12.207 28.2524C12.4361 28.4816 11.5197 29.4509 10.8147 29.7682C10.5327 29.8915 10.3917 29.9973 10.5151 30.0149C10.8852 30.0149 11.4668 29.6624 12.1542 29.0279C12.5347 28.659 12.6964 28.5239 12.9108 28.5239C13.0241 28.5239 13.1522 28.5616 13.335 28.6226C13.9871 28.8517 14.0576 29.0456 13.5465 29.1866C13.335 29.2394 13.194 29.4333 13.194 29.6448C13.194 29.8892 13.2927 30.0066 13.4334 30.0066C13.6072 30.0066 13.8452 29.8272 14.04 29.4862C14.2016 29.1924 14.3631 29.0456 14.5145 29.0456C14.5448 29.0456 14.5746 29.0515 14.604 29.0632C15.3442 29.3804 16.7895 29.68 18.0937 29.7858L19.5389 29.8915L18.5872 30.2793C17.0715 30.8961 14.3396 32.6233 13.9872 33.1873C13.9653 33.2201 13.93 33.2359 13.8827 33.2359C13.7772 33.2359 13.6124 33.1571 13.4055 33.0111C13.1526 32.8304 12.9655 32.7485 12.7487 32.7485C12.6482 32.7485 12.5413 32.7661 12.4185 32.7996L11.9074 32.9406L12.4009 33.3283C12.6653 33.5398 13.0002 33.7161 13.1411 33.7161C13.7404 33.7161 12.912 34.4916 11.6607 35.0908C10.5856 35.6019 10.0568 35.7253 8.94647 35.7958C8.67613 35.8142 8.42512 35.822 8.21274 35.822C7.81589 35.822 7.55411 35.795 7.55411 35.7606C7.55411 35.6901 7.64223 35.4609 7.74798 35.2671C7.95947 34.8617 7.57173 33.5575 7.11349 33.1873C7.05969 33.1433 7.01404 33.1183 6.97278 33.1183C6.8653 33.1183 6.7875 33.288 6.67288 33.7337C6.30276 35.0908 6.88436 36.0073 8.13571 36.0073H8.87597L8.29434 36.4655C7.73034 36.9062 6.91961 38.2456 7.09585 38.4218C7.1116 38.4399 7.14606 38.4481 7.19494 38.4481C7.52874 38.4481 8.5355 38.0641 8.85834 37.7874C9.03458 37.6288 9.33419 37.1705 9.52807 36.7475C9.72195 36.3069 9.98634 36.0073 10.1626 36.0073C10.3212 35.9897 10.8852 35.8487 11.3787 35.6724C11.8307 35.5165 12.2138 35.402 12.2964 35.402C12.3071 35.402 12.3128 35.404 12.3128 35.4081C12.3128 35.4433 12.1542 35.7429 11.9603 36.0954C10.4798 38.7215 10.1978 39.6556 10.6208 40.2725L10.8676 40.625L11.0614 40.2725C11.3258 39.779 11.3082 39.356 11.0085 39.0211C10.7794 38.7567 10.8852 38.51 11.9955 36.7123C13.476 34.2977 13.8461 33.8395 14.9741 32.9758C15.91 32.2774 17.5325 31.4571 17.8581 31.4541H17.8616C17.9431 31.4548 17.9378 31.5103 17.8117 31.6364C17.424 32.0241 17.6883 34.2448 18.1113 34.2448C18.6048 34.2448 18.8339 32.2708 18.3933 31.6716C18.1642 31.3191 18.1818 31.2839 18.6224 31.0724C18.9907 30.9145 20.5283 30.3902 20.7171 30.3677H20.7207C20.7331 30.3774 20.6285 30.6202 20.4731 30.9138C20.332 31.1957 20.2615 31.4954 20.3144 31.5482C20.3478 31.5844 20.3962 31.6009 20.4548 31.6009C20.7668 31.6009 21.3673 31.1354 21.5305 30.7199C21.6891 30.2793 21.8478 30.1912 22.4999 30.0854C22.7477 30.0441 23.189 30.027 23.6715 30.027C24.0127 30.027 24.3745 30.0356 24.703 30.0502C26.7298 30.1559 27.8402 30.7199 29.6731 32.5528C31.2065 34.0861 31.9644 35.3904 32.4755 37.3644C32.8103 38.6334 32.828 39.1973 32.5636 40.3958L32.3697 41.2947L31.6118 40.2725C31.1888 39.726 30.431 38.9506 29.9375 38.5628C28.9505 37.805 28.0869 36.6946 27.893 35.9368C27.82 35.6447 27.762 35.5151 27.7284 35.5104H27.7247C27.6734 35.518 27.6868 35.8484 27.8049 36.3422C27.9103 36.824 27.9128 37.01 27.8234 37.01C27.8081 37.01 27.7902 37.0046 27.7697 36.9943C26.4655 36.4303 25.267 35.9897 24.7911 35.9192C24.5911 35.8869 24.4643 35.8688 24.4159 35.8683H24.4123C24.3367 35.8691 24.4897 35.9215 24.8968 36.0425L25.5842 36.2717L24.9321 36.5713C24.5796 36.7475 24.2976 36.959 24.2976 37.0648C24.2976 37.1898 24.4756 37.2464 24.7161 37.2464C25.0857 37.2464 25.603 37.1128 25.8486 36.8885C25.9999 36.7432 26.1076 36.652 26.2595 36.652C26.5498 36.652 27.0015 36.9851 28.2279 37.9107C29.1366 38.5996 29.3993 38.8984 29.0667 38.8984C28.9993 38.8984 28.9076 38.8862 28.7919 38.8624C28.7472 38.855 28.7012 38.8515 28.6546 38.8515C28.2596 38.8515 27.8225 39.1037 27.8225 39.356C27.8225 39.5259 28.123 39.6221 28.4603 39.6221C28.7177 39.6221 28.9965 39.5661 29.1796 39.4441C29.3394 39.3409 29.4646 39.2771 29.5872 39.2771C29.8838 39.2771 30.166 39.6509 30.8892 40.7483C31.9643 42.3522 31.9996 42.6166 31.4356 44.1852L30.9597 45.4893L30.3428 44.802C29.6907 44.0794 27.9635 42.9161 26.9413 42.5284C26.6064 42.4051 26.0953 42.1231 25.7957 41.9116C24.844 41.2066 24.2271 40.9951 22.447 40.6779C20.5964 40.3606 19.5389 40.0962 19.5389 39.9376C19.5389 39.8847 19.7328 39.6204 19.9796 39.3207C20.3497 38.8801 20.4202 38.6158 20.4202 37.6816C20.4202 37.0648 20.3497 36.5184 20.2615 36.4655C20.2502 36.4583 20.2373 36.4548 20.223 36.4548C19.9249 36.4548 19.0102 37.971 19.0102 38.4924C19.0102 38.7567 19.0807 39.1798 19.1864 39.4441C19.2872 39.6961 19.3304 39.804 19.2532 39.804C19.1955 39.804 19.0703 39.7436 18.8516 39.638C18.3757 39.3912 17.8293 38.8096 17.283 38.0165C17.2073 37.8955 17.1609 37.8297 17.1465 37.8232H17.1429C17.1338 37.8311 17.173 37.9283 17.2653 38.1223C17.3887 38.369 17.6355 38.7744 17.8117 39.0388C18.1466 39.5322 18.1466 39.5322 17.7765 39.5322C17.5826 39.5322 17.1596 39.6556 16.86 39.8142C16.437 40.0257 16.3665 40.1315 16.5603 40.2549C16.7216 40.353 16.9078 40.4009 17.1015 40.4009C17.3948 40.4009 17.7049 40.2909 17.9703 40.0786C18.1818 39.9112 18.292 39.8275 18.4153 39.8275C18.5387 39.8275 18.6753 39.9112 18.9397 40.0786C19.2393 40.2549 20.2615 40.6074 21.2309 40.8717C23.3811 41.4357 23.7689 41.6296 22.7642 41.6472C21.4776 41.6472 19.5037 42.1583 18.6577 42.7047C18.1994 42.9867 17.3182 43.8151 16.6661 44.5377C16.0316 45.2426 15.2209 46.0005 14.8684 46.1944C14.5708 46.3729 14.3989 46.4761 14.3273 46.4761C14.2293 46.4761 14.3196 46.2826 14.5335 45.8243C14.7802 45.3131 14.7802 45.084 14.604 44.238C14.4983 43.6917 14.3396 43.1982 14.2515 43.1453C14.2435 43.1403 14.2347 43.1378 14.2252 43.1378C14.0023 43.1378 13.3703 44.4706 13.3703 44.9607C13.3703 45.1898 13.4937 45.648 13.6346 46.0005C13.8461 46.5116 13.8638 46.6703 13.6875 46.776C13.6532 46.7966 13.6222 46.8072 13.594 46.8072C13.4776 46.8072 13.4094 46.6269 13.3526 46.2296C13.2821 45.7538 13.053 45.3131 12.6653 44.9078C12.3304 44.5729 12.0132 44.2909 11.9603 44.2909C11.8898 44.2909 11.9074 44.6963 11.9603 45.2074C12.0484 45.8948 12.1894 46.1944 12.5419 46.494C13.1588 46.9699 13.1411 47.1109 12.489 47.1109C12.1365 47.1109 11.7312 46.8994 11.2553 46.4764C10.8915 46.1521 10.6696 45.9911 10.5945 45.9886H10.591C10.5057 45.9917 10.6361 46.2276 10.9909 46.6879L11.4315 47.2695L10.8676 47.34C10.6665 47.3735 10.7486 47.3858 11.0378 47.3858C11.2048 47.3858 11.4408 47.3817 11.7312 47.3752C12.11 47.3612 12.3895 47.3509 12.5928 47.3509C13.1557 47.3509 13.1343 47.4299 13.0178 47.7277C12.9296 47.9569 12.9297 48.3622 13.0002 48.6266L13.1235 49.1025L13.5289 48.5913C13.7933 48.2565 13.899 47.9216 13.8638 47.6044C13.7933 47.1814 13.8638 47.0933 14.3573 46.9346C14.6745 46.8289 15.2561 46.5116 15.6439 46.212L16.3665 45.7009L16.2607 46.4411C16.2078 46.8641 16.0845 47.4634 15.9964 47.7982C15.9082 48.1331 15.8906 48.4504 15.9259 48.5032C15.9351 48.5094 15.9438 48.5123 15.9518 48.5123C15.9899 48.5123 16.014 48.4465 16.014 48.3446C16.014 48.3163 16.0254 48.3029 16.0464 48.3029C16.1302 48.3029 16.3669 48.5143 16.6485 48.8381C17.0485 49.3181 17.301 49.5485 17.4445 49.5485C17.554 49.5485 17.6002 49.4146 17.6002 49.1553C17.6002 48.4504 17.2477 47.6925 16.7895 47.4457C16.4017 47.2519 16.3488 47.1285 16.4546 46.5998C16.8247 44.6258 18.5167 42.9867 20.5964 42.6166C20.8203 42.5782 20.963 42.5537 21.0361 42.5533H21.0398C21.1629 42.554 21.0767 42.6279 20.8432 42.8281C20.6316 43.0219 20.3849 43.3216 20.2615 43.5331C20.05 43.9561 19.9972 45.8771 20.2087 45.8771C20.4907 45.8771 21.6187 44.5553 21.7244 44.097C21.7773 43.8503 21.742 43.3921 21.6539 43.0924L21.4953 42.5284H22.588C23.8394 42.5284 25.1083 42.8281 26.1834 43.3744C26.9061 43.7445 27.2938 44.1147 26.9766 44.1147C26.6945 44.1147 25.1788 45.5423 24.8968 46.071C24.703 46.4411 24.5091 46.5821 24.1566 46.5821C23.5926 46.5821 22.7819 47.0756 23.2401 47.1285C23.5205 47.1677 23.7474 47.1874 23.9293 47.1874C24.3189 47.1874 24.5019 47.0972 24.562 46.917C24.6148 46.7584 24.8616 46.4411 25.1083 46.212L25.5666 45.789L25.4432 46.1944C25.3097 46.6245 25.6754 47.3541 25.9418 47.3541C25.9919 47.3541 26.0386 47.3282 26.0777 47.2695C26.2892 46.9346 26.2716 45.93 26.0601 45.789C25.9543 45.7185 25.9191 45.5951 25.9896 45.507C26.1482 45.2426 27.4172 44.6434 27.8049 44.6434H27.8049C28.2808 44.6434 29.1268 45.7714 29.8846 47.4104C30.3127 48.3277 30.4607 48.6848 30.5524 49.6657H30.5487C30.4822 49.9222 30.4173 50.248 30.3658 50.5922C30.1496 51.9505 29.9992 52.3397 28.488 55.5437C26.7878 59.1471 26.5726 59.7791 26.419 61.524C26.3672 62.0573 26.227 63.2985 26.1033 64.2878C25.9618 65.4225 25.8717 66.7988 25.8475 68.0193C25.8119 69.9081 25.8128 69.9855 26.087 71.0572C26.3816 72.2061 26.5316 72.6111 26.9162 73.1971C27.0643 73.4375 27.1755 73.8235 27.24 74.3554C27.3776 75.3416 27.6623 76.4809 28.1237 77.8215C28.475 78.8631 28.7558 80.4868 28.8104 81.8225L28.8384 82.5485L28.4082 83.0088C27.8918 83.5573 26.626 84.6086 26.3562 84.7183C26.2404 84.7584 25.9135 84.9559 25.6253 85.153C25.3371 85.3502 25.0291 85.5088 24.942 85.5099C24.5741 85.5142 21.9716 86.5426 19.6504 87.6065C17.7817 88.4518 15.9348 89.4907 15.7541 89.7737C15.7258 89.8321 15.5528 89.9407 15.3891 90.0201C15.2156 90.09 14.9372 90.2966 14.765 90.473C13.8273 91.4236 13.9465 92.4874 15.0472 93.0263C15.6692 93.3281 16.4282 93.4751 17.8326 93.4751C19.0233 93.4751 20.6778 93.3694 23.106 93.1627C25.697 92.9366 27.2654 92.8332 28.2049 92.8332C28.5703 92.8332 28.8406 92.8489 29.0389 92.879C29.5144 92.9605 30.1895 93.5433 30.4773 94.1306C30.5966 94.3906 30.8076 95.0272 30.9495 95.5582C31.0817 96.0892 31.3018 96.687 31.4397 96.8791C31.6173 97.1481 31.678 97.3702 31.6828 97.7768C31.6883 98.2349 31.7079 98.3071 31.8754 98.3071C31.8778 98.3071 31.8803 98.3071 31.8828 98.3071C31.8837 98.3071 31.8845 98.3071 31.8854 98.3071C32.125 98.3071 32.1486 98.7327 31.9362 99.5363C31.8624 99.8471 31.7838 100.565 31.7809 101.136C31.7683 101.707 31.69 102.444 31.6165 102.784C30.971 105.504 30.9195 106.056 31.1733 107.854C31.5006 110.126 31.5096 110.882 31.2269 112.357C31.0902 113.075 30.935 113.861 30.8991 114.104C30.8535 114.346 30.8055 115.19 30.7859 115.984C30.7628 117.301 30.7742 117.446 30.952 117.735C31.0606 117.908 31.1503 118.129 31.1515 118.226C31.1528 118.333 31.2227 118.516 31.3113 118.631C31.4094 118.775 31.5065 118.825 31.6915 118.825C31.7294 118.825 31.771 118.823 31.8171 118.819C32.1266 118.786 32.1747 118.756 32.153 118.563C32.1329 118.429 32.1467 118.361 32.1945 118.361C32.2468 118.361 32.3396 118.442 32.473 118.608C32.5888 118.747 32.6428 118.812 32.7119 118.812C32.766 118.812 32.8294 118.772 32.9391 118.699C33.0477 118.619 33.1441 118.571 33.1772 118.571C33.1851 118.571 33.1893 118.574 33.1894 118.58C33.1897 118.605 33.2017 118.616 33.2224 118.616C33.3435 118.616 33.761 118.228 33.8413 118.02C33.9629 117.67 33.8535 117.419 33.2534 116.642C32.742 115.98 32.6516 115.71 32.6499 114.751C32.638 113.754 32.7567 113.152 33.3819 111.159C33.6335 110.333 33.9311 109.293 34.0418 108.837C34.6327 106.409 34.6066 106.651 34.6431 103.213L34.6819 99.9684L35.0082 98.8993C35.1948 98.3063 35.4364 97.4609 35.5472 97.0045C35.7968 96.004 36.0582 95.1874 36.5732 93.6996C37.4631 91.1712 37.7611 89.3664 37.6129 87.4895C37.4973 85.9123 37.4066 85.6132 36.554 83.948C35.8103 82.4945 35.7603 82.3596 35.7534 81.7786C35.7408 80.7232 35.9906 78.9287 36.2433 78.1896C36.6086 77.1491 37.1067 75.0611 37.2032 74.2175C37.2639 73.6357 37.3572 73.3343 37.623 72.876C38.0119 72.1935 38.3828 70.814 38.5223 69.5146C38.7499 67.4783 38.1996 61.9262 37.5557 59.9002C37.2335 58.8678 36.915 58.1453 35.8139 55.9408C34.4548 53.226 33.7774 51.6362 33.692 50.9787C33.6114 50.3461 33.3711 49.4567 33.1972 49.0731H33.1934C33.0877 46.6873 33.8741 44.7297 35.8418 42.1935C36.8957 40.8177 37.2567 40.4629 37.8535 40.4629C37.9753 40.4629 38.107 40.4777 38.2564 40.5016C39.1905 40.6602 41.3407 41.5414 41.8871 41.9997C42.1867 42.2464 42.2924 42.4932 42.2396 42.9162C42.1867 43.4273 42.1338 43.4978 41.658 43.4978C41.3583 43.4978 40.8825 43.6564 40.6005 43.8503L40.0717 44.2028L40.7238 44.2556C40.7863 44.2619 40.852 44.2648 40.9191 44.2648C41.2309 44.2648 41.572 44.2017 41.7461 44.1147C41.8645 44.0519 41.9444 44.0168 41.9977 44.0168C42.0792 44.0168 42.0986 44.0991 42.0986 44.2909C42.0986 44.8372 41.4641 46.3706 40.953 47.0403C40.53 47.6043 39.3667 48.3446 38.9261 48.3446C38.8204 48.3446 38.6089 48.4503 38.4855 48.5913C38.2211 48.8557 37.9391 49.7545 38.1154 49.7545C38.4855 49.7545 39.261 49.1729 39.3491 48.8381C39.402 48.5913 39.7897 48.2388 40.3185 47.9568C41.4641 47.3223 42.2572 46.1591 42.7154 44.3966L43.0855 43.0043L43.5085 43.6564C43.8081 44.1675 43.9492 44.7491 44.0725 46.0357C44.143 46.9698 44.284 47.9392 44.3721 48.2036C44.5308 48.6266 44.4955 48.6794 43.9668 48.7675C43.2794 48.8909 42.9269 49.2611 42.5392 50.1776L42.2572 50.8473L42.8388 50.7239C43.6672 50.5653 44.284 50.0542 44.3545 49.5254C44.3898 49.2611 44.4779 49.0496 44.566 49.0496C44.989 49.0496 45.0419 50.8825 44.6365 51.517L44.3545 51.9576L44.7246 51.5346C44.9361 51.3055 45.0947 50.8825 45.0947 50.5829V50.0365L45.8526 50.7944C46.258 51.2174 46.7515 51.6404 46.9453 51.7285C46.9791 51.7469 47.0017 51.7557 47.0136 51.7557C47.0703 51.7557 46.8893 51.5583 46.54 51.2527C46.1346 50.9002 45.6059 50.2833 45.3767 49.8779C44.9185 49.1201 44.566 47.4281 44.566 46.0886C44.566 45.5664 44.5854 45.402 44.7458 45.402C44.802 45.402 44.8754 45.4222 44.9714 45.4541C45.694 45.6656 46.2932 46.0357 46.8748 46.6173C47.084 46.8265 47.2319 46.9438 47.2781 46.9438C47.3019 46.9438 47.2986 46.9125 47.2626 46.8465C46.9629 46.3001 46.1346 45.5775 45.271 45.1192C44.2963 44.6004 44.1349 44.2219 44.8494 44.2212H44.8533C44.9389 44.2213 45.0369 44.2268 45.1476 44.238C45.2895 44.2544 45.4229 44.2623 45.5416 44.2623C45.8063 44.2623 45.9978 44.2229 46.0465 44.1499C46.2058 43.8949 45.616 43.6112 45.0196 43.6112C44.9563 43.6112 44.8929 43.6144 44.8304 43.6212C44.7405 43.6311 44.662 43.6367 44.5923 43.6367C44.2927 43.6367 44.156 43.5336 43.9844 43.2334C43.2618 42.0349 41.1469 40.5368 39.3844 39.9904C38.838 39.8142 38.3974 39.6027 38.3974 39.5322C38.3974 39.1978 41.7014 37.2465 42.2724 37.241H42.2762C42.3804 37.2427 42.3622 37.4364 42.1867 37.7697C42.0457 38.0517 41.9223 38.4042 41.9223 38.5628C41.9223 38.6674 41.9666 38.7126 42.0381 38.7126C42.304 38.7126 42.9466 38.0861 43.0855 37.5582L43.2618 36.9943L43.5614 37.805C43.8257 38.4923 44.0196 38.6862 44.8304 39.1092C45.2747 39.3462 45.6816 39.496 45.8526 39.496C45.8851 39.496 45.909 39.4906 45.9231 39.4793C46.1699 39.215 45.2181 37.6992 44.6189 37.4172C44.3016 37.2762 44.0373 37.0824 44.0373 36.9943C44.0373 36.932 44.2316 36.9034 44.5644 36.9034C45.5498 36.9034 47.7493 37.1541 49.7124 37.523C51.704 37.9107 52.2504 38.0694 52.8496 38.51L53.5722 39.0563L52.9201 39.4265C52.2179 39.8184 52.1663 40.1196 52.7796 40.1196C52.8281 40.1196 52.8809 40.1177 52.9377 40.1138C53.0267 40.1079 53.1007 40.1035 53.162 40.1035C53.465 40.1035 53.4576 40.2118 53.4136 40.7836C53.3431 41.4709 53.8014 43.0572 54.0657 43.0572C54.1362 43.0572 54.3477 42.6165 54.5416 42.0878C54.806 41.2947 54.8236 41.0127 54.665 40.5897C54.5606 40.294 54.5077 40.067 54.5572 40.0611H54.5611C54.7008 40.0771 56.5508 41.7183 56.5508 41.8411C56.5508 41.9116 56.3922 41.9997 56.1983 42.0526C55.8282 42.1407 55.3523 42.9867 55.5638 43.1805C55.5954 43.2148 55.6416 43.2301 55.6974 43.2301C56.0152 43.2301 56.6468 42.7323 56.6918 42.3875C56.7262 42.147 56.7605 42.0237 56.8683 42.0237C56.9817 42.0237 57.1764 42.1602 57.5378 42.4403C58.3662 43.0748 58.5777 43.8679 58.2957 45.2779C58.1547 45.9829 57.9784 46.4059 57.8374 46.4059C57.5202 46.4059 56.9033 47.0404 56.9033 47.3752C56.9033 47.5162 57.0443 47.6396 57.2206 47.6396C57.6788 47.6396 58.3133 46.8994 58.3133 46.3706C58.3133 46.1239 58.4191 45.5951 58.5601 45.2074C58.7187 44.7668 58.7716 44.2204 58.7187 43.8327C58.6476 43.4201 58.6568 43.2602 58.7649 43.2602C58.7908 43.2602 58.8223 43.2693 58.8597 43.2863C59.0007 43.3392 59.5294 43.5331 60.0406 43.6917C60.8865 43.9737 60.957 44.0442 60.957 44.5729C60.957 44.9959 61.1156 45.2779 61.5739 45.6833C61.9264 45.9829 62.2789 46.2296 62.367 46.2296C62.649 46.2296 62.5609 44.9254 62.2613 44.5024C61.9969 44.1323 62.0145 44.1147 62.5961 44.1147C63.1777 44.1147 65.0988 43.6212 64.9755 43.4978C64.9709 43.4932 64.9588 43.491 64.94 43.491C64.8144 43.491 64.3886 43.589 63.8827 43.7269C63.4117 43.8572 63.0832 43.9191 62.7253 43.9191C62.4539 43.9191 62.1655 43.8835 61.7854 43.8151C61.1861 43.7093 60.4635 43.5331 60.1815 43.4273L59.688 43.2334L60.7103 42.7047C61.8206 42.1583 63.072 41.1185 63.072 40.766C63.072 40.6823 63.0573 40.6378 63.0149 40.6378C62.9769 40.6378 62.9168 40.6734 62.8253 40.7484C62.7542 40.8065 62.7068 40.8386 62.6779 40.8386C62.6279 40.8386 62.6331 40.7426 62.6666 40.5192C62.7724 39.9905 62.3846 39.2502 61.5915 38.4924L60.957 37.8755V38.8978C60.957 39.8495 61.0099 39.9728 61.6444 40.6074C62.2613 41.2242 62.2965 41.3123 62.0321 41.5414C61.6973 41.8411 59.4942 42.8809 59.1769 42.8809C58.7011 42.8809 56.5156 41.189 54.9998 39.6556L53.3431 37.9989L54.2067 37.8755C55.2642 37.7345 56.4098 37.2058 58.2075 36.0425C58.9654 35.5314 59.6528 35.126 59.7233 35.126C59.7938 35.126 59.9877 35.32 60.1463 35.5667C60.3225 35.8487 60.6045 36.0073 60.8689 36.0073C61.4329 36.0073 61.4329 35.7606 60.8513 35.1789C60.393 34.7383 60.393 34.7031 60.7103 34.4563C61.2567 34.051 63.4774 33.0111 63.8122 33.0111C63.9885 33.0111 64.1295 33.0992 64.1295 33.1873C64.1295 33.4341 64.9402 34.2448 65.187 34.2448C65.5042 34.2448 65.3808 33.7161 64.9402 33.2755L64.5172 32.8525L65.2046 32.8877C65.2406 32.8889 65.2753 32.8896 65.309 32.8896C65.77 32.8896 66.0265 32.772 66.4207 32.3942C67.0551 31.7773 67.0728 31.6716 66.5265 31.5306C66.4184 31.5052 66.3098 31.493 66.2027 31.493C65.7157 31.493 65.2595 31.7461 65.0284 32.1651C64.8521 32.5 64.5701 32.641 63.8122 32.7996C63.2659 32.8877 62.6666 33.0287 62.508 33.0992C62.4681 33.1149 62.4341 33.1223 62.4055 33.1223C62.0816 33.1223 62.4712 32.1695 63.0544 31.6187C63.354 31.3367 63.6007 31.0195 63.6007 30.8961C63.6007 30.7995 63.7478 30.7177 63.948 30.7177C63.9669 30.7177 63.9863 30.7184 64.0061 30.7199C64.1556 30.7323 64.358 30.7448 64.5198 30.7448C64.5869 30.7448 64.647 30.7426 64.6935 30.7375C65.0988 30.7199 65.8391 30.0149 65.9801 29.5214C66.0858 29.169 66.0329 29.1337 65.3808 29.1337C64.8345 29.1337 64.6053 29.2394 64.3234 29.5919L63.9709 30.0326L63.9004 29.3628C63.8668 29.0443 63.8492 28.8813 63.8381 28.8813C63.8259 28.8813 63.8215 29.0795 63.8122 29.4862C63.777 30.244 63.2483 31.4249 62.9134 31.4249C62.8429 31.4249 62.7195 30.8433 62.6843 30.1559C62.6314 29.4509 62.4551 28.5873 62.2965 28.2524C62.1963 28.0408 62.1312 27.9136 62.1147 27.8977H62.1107C62.1096 27.9048 62.1183 27.9341 62.1379 27.9881C62.1908 28.1819 62.2789 28.9574 62.3318 29.7153C62.4199 31.4954 62.1379 32.5176 61.3095 33.3459C60.4988 34.1567 57.3616 36.113 55.9516 36.677C55.0848 37.0353 53.9074 37.2268 52.7771 37.2268C52.1835 37.2268 51.603 37.174 51.0872 37.0648C50.0825 36.8532 49.6419 36.536 50.3469 36.536C50.5232 36.536 51.1224 36.254 51.6864 35.9191L52.7086 35.3199L53.1845 35.6724C53.4215 35.8476 53.5681 35.9264 53.7512 35.9264C53.8812 35.9264 54.0297 35.8866 54.242 35.8134L54.8412 35.6019L54.3654 35.1789C54.101 34.9674 53.7661 34.7735 53.6075 34.7735C53.4488 34.7735 53.678 34.3858 54.2772 33.6632C54.7057 33.1775 54.949 32.854 54.9227 32.8426H54.9187C54.9096 32.8448 54.8899 32.8595 54.8589 32.8877C54.6857 33.0279 54.5936 33.1024 54.5517 33.1024C54.5041 33.1024 54.5217 33.0059 54.5592 32.7996C54.5945 32.5528 54.4535 32.2003 54.2067 31.8831L53.7837 31.3543L53.5546 32.0241C53.3607 32.6409 53.3784 32.7467 53.7309 33.2402L54.1362 33.7689L53.3607 34.4387C52.9377 34.8088 52.3738 35.2318 52.1094 35.3904L51.6335 35.6724L51.8802 35.0555C52.0213 34.703 52.1446 34.1743 52.1446 33.8571V33.2754L51.4925 33.9276C50.9638 34.4563 50.8404 34.7207 50.8051 35.3375C50.7875 36.0425 50.7347 36.113 50.1002 36.3421C49.8055 36.4372 49.5415 36.4861 49.1701 36.4861C48.8529 36.4861 48.4572 36.4504 47.8971 36.3774C47.0511 36.2716 45.6588 36.1835 44.7599 36.1835C43.1737 36.1835 42.9093 36.0778 43.4204 35.6548C43.5614 35.5314 43.6848 35.3023 43.6848 35.1436C43.6848 35.0243 43.6752 34.9671 43.6486 34.9671C43.6242 34.9671 43.5853 35.0155 43.5262 35.1084C43.4748 35.1891 43.4356 35.2301 43.4011 35.2301C43.3527 35.2301 43.3132 35.1496 43.2618 34.985C43.1417 34.6396 42.3816 33.987 42.1595 33.987C42.1209 33.987 42.0986 34.0066 42.0986 34.0509C42.0986 34.4563 42.4863 35.2318 42.8212 35.4962C43.1913 35.7605 43.1913 35.7605 42.7683 36.0425C42.5568 36.1835 42.1338 36.3598 41.8342 36.4303C39.8073 36.9237 37.146 38.4218 35.3659 40.0433L34.3613 40.9598L34.4671 39.9376C34.5904 38.651 35.7713 35.9191 36.4234 35.408C36.6878 35.2141 37.2165 34.7559 37.6043 34.3858C38.2035 33.8571 38.6089 33.6632 39.8955 33.3636C43.1032 32.6057 43.6848 32.4294 44.6894 31.9536C45.2533 31.6892 46.0994 31.1781 46.5576 30.8256C47.0368 30.457 47.2848 30.3025 47.4626 30.3025C47.5399 30.3025 47.6039 30.3316 47.668 30.385C47.7623 30.4623 47.8651 30.5019 48.0128 30.5019C48.1685 30.5019 48.3741 30.4578 48.6726 30.3674L49.3952 30.1559L48.9017 29.8915C48.6902 29.7787 48.3997 29.6998 48.2018 29.6998C48.1523 29.6998 48.1086 29.7047 48.0733 29.7153C47.9702 29.7422 47.8934 29.7588 47.8422 29.7588C47.6919 29.7588 47.7621 29.6158 48.0381 29.1689C48.0812 29.1043 48.0937 29.0723 48.0798 29.0699H48.0759C48.0213 29.077 47.7304 29.3496 47.3155 29.8034C45.8526 31.3543 43.8434 32.2884 41.0411 32.6762C40.3185 32.7643 39.5606 32.9053 39.3667 32.9582C39.3465 32.9629 39.3293 32.9652 39.3151 32.9652C39.1686 32.9652 39.3444 32.7161 39.8426 32.218C40.3008 31.7597 40.953 30.8256 41.3054 30.1559C41.9223 28.9927 41.9399 28.9222 41.6227 28.6931C41.4147 28.5247 41.0897 28.4342 40.8451 28.4342C40.6543 28.4342 40.5124 28.4891 40.5124 28.6049C40.5124 28.7107 40.7238 28.8869 41.0058 28.9926C41.2702 29.116 41.517 29.2218 41.5522 29.2394C41.8694 29.4685 39.3315 32.1827 37.7805 33.2754C37.2068 33.675 36.8892 33.8661 36.7514 33.8661C36.6522 33.8661 36.6464 33.7669 36.7054 33.575C36.7583 33.4164 36.9169 32.5528 37.0755 31.6892C37.4456 29.5038 38.3797 27.6179 39.8426 26.1551C42.1867 23.7934 44.4779 22.6125 46.7515 22.6125C48.2848 22.6125 48.6726 22.7535 48.5316 23.2117C48.2672 24.0401 48.2496 24.5512 48.4434 25.1505C48.539 25.469 48.6921 25.6868 48.7988 25.6868C48.8102 25.6868 48.821 25.6843 48.8312 25.6792C49.1837 25.4501 49.6595 24.1282 49.5538 23.6171L49.4481 23.106L50.2235 23.5114C50.6465 23.7229 51.1753 24.0225 51.4044 24.1635L51.8097 24.4279L51.3515 24.798C51.0343 25.0447 50.8933 25.3091 50.9462 25.5735C50.9771 25.7693 51.002 25.8566 51.0984 25.8566C51.1668 25.8566 51.2713 25.8126 51.4396 25.7321C51.6688 25.6087 51.9684 25.3443 52.0741 25.1152C52.146 24.9715 52.1937 24.8835 52.2952 24.8835C52.4676 24.8835 52.7952 25.1371 53.6604 25.8026C54.4182 26.4018 55.2113 26.9835 55.3876 27.1245C55.5638 27.2478 55.7753 27.6532 55.8458 28.0233C55.9193 28.3726 55.9545 28.5397 55.9739 28.5397C55.9916 28.5397 55.996 28.399 56.0045 28.1291L56.0221 27.5651L56.7447 27.8118C57.2132 27.9822 57.4959 28.0639 57.5927 28.0639C57.7363 28.0639 57.4712 27.8843 56.7975 27.5475C56.2336 27.2655 55.3347 26.6662 54.8412 26.2432L53.9071 25.4677L54.6297 25.08C54.9901 24.8998 55.1821 24.8166 55.3237 24.8166C55.4453 24.8166 55.5298 24.8779 55.652 24.9919C55.8452 25.1648 56.2614 25.2614 56.6128 25.2614C56.8704 25.2614 57.0931 25.2094 57.1677 25.0976C57.3087 24.8685 56.6918 24.5512 56.1102 24.5512C55.8282 24.5512 55.6872 24.4807 55.7577 24.3574C55.7779 24.3321 55.772 24.3199 55.7446 24.3199C55.6764 24.3199 55.4753 24.3954 55.2113 24.5336C54.7677 24.7697 54.3996 24.8955 54.0244 24.8955C53.4756 24.8955 52.9116 24.6264 52.0741 24.0401C49.8887 22.542 48.3377 21.837 46.9982 21.7665C46.3285 21.7313 45.7997 21.6431 45.7997 21.5727C45.7997 21.2907 48.6373 20.3918 50.0297 20.2332L50.999 20.1098L51.2986 20.7971C51.5101 21.2378 51.8802 21.6255 52.409 21.9427C52.9099 22.2447 53.2399 22.405 53.4134 22.405C53.6855 22.405 53.5729 22.0106 53.1316 21.1497L52.7263 20.3213H54.4365C55.3705 20.3213 56.5509 20.2508 57.0619 20.1451C57.3227 20.0985 57.5588 20.0741 57.7762 20.0741C58.3817 20.0741 58.8417 20.2635 59.2827 20.6914C59.5984 20.9854 60.0352 21.1449 60.4228 21.1449C60.6626 21.1449 60.8835 21.0838 61.0452 20.9558C61.3448 20.7091 61.3624 20.6562 61.1333 20.4976C60.9603 20.3851 60.6897 20.3279 60.4298 20.3279C60.1601 20.3279 59.9018 20.3895 59.7762 20.5152C59.7227 20.5687 59.6651 20.5961 59.5968 20.5961C59.4626 20.5961 59.2869 20.4903 59.0183 20.2684L58.472 19.8102L59.2122 19.4401C59.9877 19.0347 61.3976 17.8186 61.6797 17.3075C61.696 17.2747 61.6972 17.2584 61.6848 17.257H61.6808C61.6165 17.2631 61.3073 17.5388 60.8865 17.9596C60.2649 18.5706 59.8257 18.9077 59.688 18.9077C59.5992 18.9077 59.6357 18.7677 59.8291 18.4707C60.1639 17.9596 60.0934 16.7083 59.7057 15.8446L59.4765 15.3688L59.0888 16.1266C58.6129 17.0079 58.5777 17.7481 58.9302 18.3826C59.0712 18.6293 59.1769 18.9113 59.1945 19.0347C59.1945 19.3167 57.7141 19.7926 56.3922 19.916L55.2642 20.0217L55.5462 19.5987C55.7048 19.3696 55.8458 18.9113 55.8458 18.5588L55.8282 17.942L55.3876 18.4531C55.0527 18.8232 54.947 19.1052 55.0175 19.4929L55.0879 20.0217L53.6604 19.8983C52.8672 19.8278 51.8098 19.7397 51.2986 19.6692L50.3821 19.5634L51.0695 18.8232C51.4396 18.4178 51.845 17.9067 51.9508 17.6952C52.0918 17.4485 52.3209 17.3251 52.6558 17.3251C52.9377 17.3251 53.3079 17.1488 53.5546 16.8845L53.96 16.4438H53.4841C53.2197 16.4438 52.8672 16.5143 52.691 16.6201C52.6313 16.6517 52.5821 16.6721 52.541 16.6721C52.3759 16.6721 52.3421 16.3427 52.2856 15.0867C52.2151 13.5005 52.1799 13.3772 51.7216 12.9894C51.4589 12.7617 51.1786 12.5688 51.1061 12.5664H51.1022C50.7896 12.5715 51.159 13.4839 51.6335 13.8706C52.0918 14.2584 52.1446 14.417 52.1446 15.3864C52.1446 16.4439 51.7569 17.6776 51.422 17.6776C51.3339 17.6776 51.3163 17.5542 51.3691 17.4132C51.563 16.9374 51.0695 15.9504 50.3293 15.263L49.589 14.5933L49.5362 15.0691C49.4128 16.1795 50.153 17.5013 51.1224 17.9067C51.281 17.9772 51.14 18.1887 50.7347 18.5588C49.8887 19.3167 48.9898 19.7573 47.4212 20.1627C45.8878 20.568 45.1124 20.9382 43.9668 21.8194C43.5085 22.1719 42.9445 22.5244 42.7154 22.6125L42.2924 22.7711L42.8036 21.696C43.0855 21.1144 43.3676 20.1803 43.4204 19.6339C43.6319 17.6952 43.6672 17.5366 44.1078 17.4308C44.5308 17.3251 45.1653 16.5496 45.0595 16.25C45.0494 16.2247 45.0161 16.2125 44.9654 16.2125C44.8393 16.2125 44.6059 16.288 44.3545 16.4262L43.6848 16.7611L43.7905 16.2852C44.0725 15.1573 44.4779 14.5051 45.3415 13.8354C45.6212 13.6256 45.7796 13.4504 45.696 13.4477H45.6922C45.6009 13.4509 45.2333 13.6964 44.8656 13.994L44.2135 14.5228V14.0645C44.2135 13.8002 44.0901 13.3595 43.9139 13.0952C43.6496 12.6369 43.6496 12.5841 43.9139 12.3021C44.1078 12.1258 44.2135 11.738 44.2135 11.2798L44.1959 10.5396L43.861 10.9626C43.6672 11.1917 43.4909 11.5265 43.4909 11.7028C43.4733 11.879 43.4557 12.1434 43.438 12.2491C43.4204 12.3726 43.5438 12.7603 43.72 13.0952C44.1254 13.8706 44.1078 14.0645 43.6848 15.7213C43.5085 16.4615 43.297 17.2898 43.2442 17.5718L43.1384 18.0829L42.8212 17.5718C42.6449 17.2898 42.2748 16.8668 41.9928 16.6201L41.4817 16.1795L41.9399 16.7082C42.2043 17.0078 42.5039 17.4309 42.6273 17.66C42.9622 18.3121 42.8917 19.9512 42.4863 20.85C42.1691 21.5903 40.671 23.7229 40.3361 23.9344C40.3314 23.9371 40.3262 23.9385 40.3204 23.9385C40.1051 23.9385 39.1024 22.0731 39.1024 21.6784C39.1024 21.5374 39.261 21.3083 39.4549 21.1849C39.9123 20.8506 40.1239 19.9719 39.7389 19.9688H39.7351C39.5935 19.9701 39.3131 20.1282 39.1376 20.3213L38.8028 20.6914L38.6794 20.286C38.6265 20.0569 38.5736 19.5282 38.556 19.0876C38.5463 18.6812 38.542 18.4926 38.5167 18.4926C38.4959 18.4926 38.461 18.6199 38.3974 18.8584C38.2564 19.4929 38.7851 21.8018 39.4196 23.2117C39.6311 23.6876 39.7897 24.1635 39.7897 24.2692C39.7721 24.375 39.1552 25.0447 38.3974 25.7497L37.0226 27.0363L36.723 25.6968C36.5644 24.939 36.0357 23.2117 35.5422 21.837C34.2027 18.0477 33.8326 16.8316 33.7092 15.545C33.5682 14.0822 33.7797 13.5886 35.2954 11.9319L36.4234 10.7158L36.8112 11.1917C37.0518 11.5056 37.3795 11.6828 37.606 11.6828C37.761 11.6828 37.8686 11.5998 37.8686 11.4208C37.8686 11.2622 37.6748 10.945 37.428 10.7158L36.9698 10.3104L37.4633 9.95795C38.2211 9.4292 38.9437 9.09436 40.3537 8.61847C41.0763 8.3717 41.4817 8.16022 41.2702 8.16022H40.8648L41.2173 7.57861C41.4112 7.27901 41.5698 6.89124 41.5522 6.75024C41.5522 6.70187 41.5418 6.67838 41.5247 6.67838C41.4917 6.67838 41.4338 6.76444 41.3759 6.92651C41.1469 7.50813 40.5476 8.125 39.9307 8.45984C39.695 8.5777 39.5372 8.64203 39.4445 8.64203C39.2876 8.64203 39.3174 8.45782 39.4725 8.03687C39.6135 7.5786 39.5959 7.33186 39.2786 6.59161C38.9515 5.83791 38.6474 5.40546 38.4495 5.40546C38.4022 5.40546 38.3609 5.4302 38.3269 5.48126C38.274 5.5694 38.1859 6.08051 38.1154 6.59161C38.0273 7.41999 38.0625 7.63148 38.4679 8.19547L38.9085 8.8476L37.8686 9.41159C37.3046 9.71119 36.3 10.4162 35.6303 10.9802C35.0027 11.523 34.4567 11.9515 34.3851 11.9515C34.3823 11.9515 34.3802 11.9509 34.3789 11.9496C34.3613 11.932 34.6609 11.3151 35.0487 10.5748C36.3353 8.2131 36.6525 7.19087 36.7583 5.28741C36.8464 3.66593 36.8816 3.57782 37.2518 3.57782C37.6043 3.57782 38.3974 2.9257 38.3974 2.64368C38.3974 2.5525 38.3218 2.51105 38.2028 2.51105Z" fill="black"/>
</svg>
