<?xml version='1.0' encoding='utf-8'?>
<svg xmlns="http://www.w3.org/2000/svg" version="1.1" width="600px" height="976px" viewBox="0 0 600 976"> <g id="layer1"> <g style="fill:rgb(0,0,0); fill-opacity:1.0; stroke-linejoin: miter"> <path d="M435.2904,651.943C435.12488,656.8358,435.3844,659.6946,436.00708,659.7156C436.62976,659.7367,436.797,657.42664,436.52368,652.34094C436.39233,648.32874,436.06482,644.84424,435.89307,644.6603C435.72107,644.4763,435.4319,647.76184,435.2904,651.943 Z"/> </g> <g style="fill:rgb(0,0,0); fill-opacity:1.0; stroke-linejoin: miter"> <path d="M435.879,644.6529C435.88376,644.6529,435.88846,644.65533,435.89307,644.6603C436.06482,644.84424,436.39233,648.32874,436.52368,652.34094C436.79575,657.4036,436.63126,659.7157,436.0155,659.7157C436.0127,659.7157,436.0099,659.7157,436.00708,659.7156C435.3844,659.6946,435.12488,656.8358,435.2904,651.943C435.4281,647.8738,435.7057,644.6529,435.879,644.6529 Z M119.93263,467.33545C119.93297,467.33545,119.933304,467.33548,119.93363,467.33548C120.82322,467.36563,125.188644,472.58987,125.15251,473.65738C125.1375,474.1022,125.64415,474.9208,126.25487,475.29788C127.56218,476.1436,133.9348,487.8483,134.72807,490.725C135.04485,491.8936,135.63744,492.8041,135.99327,492.8162C136.3491,492.82828,137.09561,494.45654,137.65213,496.4348C138.11966,498.41003,138.95506,500.04138,139.3109,500.05334C139.75572,500.06836,140.34532,501.0681,140.5731,502.23364C140.79778,503.48804,141.54729,505.02747,142.14897,505.67126C142.66167,506.312,144.25554,509.21594,145.49669,512.0189C146.82372,514.9137,148.16881,517.2749,148.52464,517.28687C148.88054,517.29895,149.63298,518.7494,150.19853,520.4607C150.76408,522.172,151.60551,523.6255,152.05028,523.6405C152.4951,523.6555,152.83586,524.1124,152.8148,524.7351C152.79674,525.2689,153.71513,527.0812,154.90636,528.7246C155.90504,530.10236,156.71614,531.4737,156.94522,532.0908L156.9468,532.0908Q160.52882,536.959,165.19228,543.5536Q165.7158,544.6099,166.21703,545.6262L166.21869,545.6262C166.8583,546.20447,167.53383,547.0686,168.31793,548.2377C169.67511,550.2428,171.1333,551.8954,171.57806,551.9104C172.02289,551.9254,172.36066,552.4713,172.3396,553.094C172.27637,554.9622,181.56801,564.6281,184.03786,565.335C185.97688,565.935,186.05385,566.2939,185.40572,569.6563C185.07259,571.60443,184.47566,573.4545,184.1108,573.7094C183.1111,574.2989,180.01195,586.92993,180.51256,587.9265C180.84625,588.3738,180.58578,588.7156,180.15729,588.7156C180.14815,588.7156,180.13892,588.7154,180.12962,588.7151C180.12056,588.7148,180.11153,588.7146,180.10252,588.7146C179.58023,588.7146,179.13274,589.22485,179.11497,589.7495C179.09392,590.3723,178.41399,592.0414,177.56212,593.5266C176.80229,594.9259,175.62645,598.0924,175.0084,600.5652C174.39342,602.949,173.60045,605.3269,173.22655,605.84863C172.76671,606.2783,171.95872,609.1011,171.32866,611.9297C170.6956,614.8473,169.8076,617.4,169.3538,617.652C168.98894,617.90674,168.30296,619.7539,167.8809,621.699C167.36992,623.641,166.19107,626.89636,165.22916,629.00134C163.60849,632.1527,163.37338,633.83704,163.7266,639.1926C164.1826,646.8281,165.25389,648.825,170.22191,648.825C170.82814,648.825,171.49239,648.7953,172.22063,648.74243C173.29253,648.67584,174.14516,648.6304,174.85123,648.6304C177.20221,648.6304,177.9283,649.1347,179.71294,651.0443C181.52092,652.8867,182.26439,654.6041,182.20122,656.4723C182.0537,660.8313,183.41386,662.7477,186.70543,662.859C188.5736,662.92224,189.18724,663.2101,188.36858,663.7168C186.73412,664.64124,186.94151,676.9388,188.6201,682.6065L189.81602,686.74384L149.84889,686.10394C127.86365,685.7164,109.62682,685.0994,109.28002,684.8205C108.33459,683.8089,111.68989,597.79956,112.68958,597.20984C113.23231,596.96106,113.99818,595.3839,114.40821,593.7947C114.72438,592.3,115.47445,590.996,115.9202,590.996C115.92276,590.996,115.925316,590.99603,115.927864,590.9961C115.9316,590.9962,115.93533,590.9963,115.93905,590.9963C116.37766,590.9963,116.66995,590.1209,116.70875,588.9741C116.61618,586.50555,118.411316,582.2728,119.56964,582.21484L119.57084,582.21484Q119.36197,581.144,119.24064,580.12683Q118.971115,578.10895,118.85123,574.6129Q118.07838,570.37976,117.926765,567.3822L117.92559,567.3822C116.742165,568.60455,115.62352,569.8923,115.37472,570.4931C115.27773,570.7543,115.18533,570.8799,115.10678,570.8799C114.94721,570.8799,114.84479,570.36145,114.8771,569.40765C114.83321,568.07025,114.43362,566.72076,113.91189,566.34686C113.21218,565.96686,113.22726,565.52203,113.963036,564.83453C114.698814,564.1469,115.39608,551.4346,116.332115,523.76807C117.081566,501.61694,118.08286,479.9197,118.50022,475.48074C119.00899,470.96146,119.66515,467.33545,119.93263,467.33545 Z M432.62845,475.91006C432.76978,475.91006,432.9758,476.69516,433.3252,478.38376C433.8485,481.34055,431.5788,543.1618,429.32867,583.3417C429.09222,587.69763,429.0431,597.0474,429.25305,604.0015C429.59448,614.9676,429.44238,616.8327,428.15784,617.9471C427.43018,618.71204,426.36307,619.2926,425.82104,619.2926C425.81277,619.2926,425.80466,619.2924,425.79663,619.2922C425.73828,619.2902,425.67996,619.28925,425.62167,619.28925C422.92404,619.28925,420.29333,621.37964,420.2196,623.5566C420.14136,625.86957,421.35364,626.8903,428.28223,630.0638C430.55896,631.20953,430.64197,631.39044,430.3922,638.77423C430.25366,642.86646,429.7594,646.94653,429.28748,647.73206C428.81555,648.5176,427.78357,660.5952,426.95825,674.46094L425.39166,699.7015L408.42133,698.50385C359.72543,695.25323,359.0168,695.1402,359.05594,693.9837C359.077,693.361,359.54282,692.75323,359.99368,692.5905C360.53348,692.4306,361.27957,688.80426,361.77988,684.5463C362.29526,679.8433,363.0414,676.21716,363.86612,675.5326C364.51297,674.8419,365.09787,673.34766,365.13998,672.1022C365.19418,670.501,365.749,669.89624,367.27036,669.68054C369.14755,669.4769,369.25156,669.03516,369.3823,662.53796C369.54782,657.64514,369.27023,655.3203,368.39877,654.75635C367.61313,654.2844,367.26163,651.5117,367.2673,646.0791C367.22287,634.23224,366.70212,625.9318,365.87875,623.94476C365.467,622.9511,364.78372,619.4545,364.36435,616.0561C363.85306,612.74335,363.14267,610.04755,362.78683,610.0356C361.98615,610.0085,361.5681,603.93805,361.30792,590.57C361.17813,584.40875,361.14868,582.8767,362.07803,582.5279L362.08163,582.5279Q361.96793,578.5123,361.95627,575.3599L361.95987,575.3599C361.6723,574.81274,361.35965,574.15674,360.99927,573.3706C359.17157,569.4791,358.87897,567.5989,359.10168,561.01587C359.33963,553.9831,360.21536,551.23346,362.12463,551.23346C362.14746,551.23346,362.17044,551.2338,362.19354,551.2346C362.54938,551.2466,363.02893,552.86597,363.31854,554.8352C363.60815,556.8042,364.08777,558.4236,364.4436,558.43567C364.88843,558.4507,365.35596,560.4259,365.54156,562.8368C366.0456,568.99915,371.40186,579.1553,374.15967,579.24866C374.87134,579.2727,375.39307,579.6466,375.37805,580.09143C375.33957,581.22906,382.5597,583.05804,386.73932,583.05804C387.13553,583.05804,387.5044,583.0416,387.8372,583.0066C391.32156,582.6793,395.87796,579.6272,395.95023,577.4922C395.97122,576.8695,396.5292,576.1758,397.16092,575.92993C397.88162,575.68713,399.00027,574.21094,399.6802,572.54175C400.4457,570.88275,401.2906,569.4914,401.6491,569.4914C401.65063,569.4914,401.6522,569.4914,401.65372,569.49146C401.65494,569.4915,401.65613,569.4915,401.65735,569.4915C402.01538,569.4915,402.87277,567.74384,403.5684,565.54846C404.26447,563.35114,405.2112,561.6053,405.48087,561.6053C405.48157,561.6053,405.48227,561.60535,405.48294,561.60535C405.48468,561.6054,405.48642,561.6054,405.48816,561.6054C405.8444,561.6054,406.4167,560.38324,406.81863,558.97876C407.22363,557.4863,407.79266,556.3519,408.14886,556.3519C408.15073,556.3519,408.1526,556.352,408.15445,556.35205C408.15585,556.3521,408.1573,556.3521,408.1587,556.3521C408.60486,556.3521,409.4834,553.983,410.20328,551.07764C410.92294,548.1722,411.8016,545.8031,412.24777,545.8031C412.24918,545.8031,412.25058,545.8031,412.25198,545.80316C412.2527,545.80316,412.2534,545.8032,412.25412,545.8032C412.61142,545.8032,413.51227,542.81036,414.25687,539.19135C415.00198,535.5705,415.90323,532.5765,416.1717,532.5765L416.17462,532.5765C416.53174,532.5765,417.45697,528.872,418.23196,524.36346C419.00516,519.93646,419.93826,516.0494,420.30313,515.7946C420.57916,515.5367,421.4942,512.1833,422.2492,508.2901C423.00433,504.3969,424.01743,500.77966,424.3884,500.34692C424.76218,499.82532,425.46017,497.6223,425.8973,495.2324C426.3314,492.93137,427.02634,490.81747,427.47714,490.65463C427.842,490.39975,428.72995,487.84702,429.452,484.93234C430.08347,482.02206,431.05112,479.65497,431.40915,479.65497C431.41003,479.65497,431.41095,479.65497,431.41183,479.655C431.41498,479.65512,431.41812,479.65515,431.4213,479.65515C431.8622,479.65515,432.24963,478.6044,432.38562,477.19418C432.4523,476.35495,432.52206,475.91006,432.62845,475.91006 Z M128.77106,129.79366L128.42094,140.14178C127.73471,160.42464,126.81003,177.22617,126.35013,177.65585C125.8873,178.17465,123.66634,225.39151,121.25483,286.13922C117.684135,375.88184,116.803215,394.02075,115.684555,395.49695C114.00804,397.66675,113.92375,400.15762,115.50566,403.4174C117.33329,407.3088,117.01231,408.9011,113.44949,411.54147C110.616486,413.6721,110.2366,414.37192,110.10715,418.1971C110.0018,421.3108,109.50284,422.89697,108.03134,424.27222C106.008026,426.1632,106.0535,430.08337,108.14334,431.49C108.925934,432.05078,108.82193,432.49268,107.82236,433.08228C105.7341,434.25842,105.9639,443.26147,108.12631,447.78772C109.130646,449.69202,109.85904,451.85413,109.83798,452.4768C109.816925,453.0996,110.15469,453.6454,110.51053,453.65747C112.6456,453.7296,112.96866,459.97488,111.88443,481.49136C111.28816,493.8506,109.89821,521.76904,108.894,543.5553L107.02081,583.1245L103.99017,583.2001C100.69263,583.2667,98.23047,584.9646,98.15222,587.2776C98.12811,587.98926,99.310425,589.89954,100.771545,591.463C102.66547,593.39746,103.163086,594.4829,102.513306,595.2626C101.958435,595.8672,100.98761,598.2389,100.37555,600.5338C99.67685,602.8183,98.81643,604.65485,98.45846,604.65485C98.45728,604.65485,98.456116,604.65485,98.454956,604.6548C98.45406,604.6548,98.45317,604.6547,98.45227,604.6547C98.094696,604.6547,97.215355,607.025,96.49512,609.93225C95.77541,612.8377,94.89676,615.2066,94.450584,615.2066C94.449165,615.2066,94.447754,615.2066,94.44634,615.20654C94.443924,615.2065,94.441505,615.2064,94.439064,615.2064C94.08286,615.2064,93.524,616.0733,93.1347,617.1216C92.82867,618.26904,92.056816,620.0242,91.48693,621.0736C90.2492,623.4365,92.128105,625.8157,95.58849,626.19995C95.90546,626.2361,96.18282,626.26,96.4293,626.26C97.90755,626.26,98.27475,625.3999,99.41046,621.1637C100.13245,618.249,101.41235,614.64075,102.17822,613.0636C102.94104,611.5753,103.630005,609.6393,103.663086,608.66077C103.677895,608.2231,103.749084,608.00415,103.88148,608.00415C104.0989,608.00415,104.4814,608.59467,105.05029,609.77637C105.9657,611.6776,106.16034,613.82166,105.69922,616.92334C104.901855,622.0619,101.98999,663.3772,101.467636,676.18427L101.083664,684.8995L95.74608,684.7188C95.34808,684.7054,94.95968,684.6988,94.58553,684.6988C92.199905,684.6988,90.39396,684.9665,90.37834,685.4279C90.36367,685.8606,89.843765,686.2763,89.16016,686.2763C89.141174,686.2763,89.12206,686.276,89.10283,686.2753C89.09679,686.27515,89.09074,686.275,89.08467,686.275C88.37678,686.275,87.53878,687.66327,87.12327,689.5036C86.70426,691.3597,85.93235,693.1149,85.38657,693.4527C84.65989,693.87335,84.073586,698.0395,83.562904,705.2363C82.943886,715.6356,82.99973,716.61707,84.72477,718.2787C86.36082,719.93713,88.13701,720.0862,121.586,721.2179C134.54546,721.6563,144.32794,721.8682,150.34799,721.8682C154.74176,721.8682,157.13132,721.7554,157.28908,721.5353C157.5865,721.05334,159.76044,720.8429,162.33037,720.8429C166.27373,720.8429,171.14941,721.3384,171.60866,722.10876C171.94344,722.7435,174.51424,723.09766,178.07565,723.129C178.34808,723.1231,178.67303,723.1203,179.04553,723.1203C183.06035,723.1203,192.597,723.4498,201.3862,723.82874L218.81938,724.50757L218.398,736.96204C218.15422,744.16785,218.31743,749.87317,218.83012,750.51404C219.34276,751.1548,219.96416,753.84766,220.22972,756.52856C220.70195,760.9977,221.82396,764.68713,225.53825,773.3627C226.36162,775.35,227.09007,777.5121,227.072,778.0459C227.05095,778.6686,227.39171,779.12537,227.83647,779.1405C228.2813,779.1555,229.11974,780.698,229.68224,782.49817C230.15282,784.3844,230.89629,786.1017,231.1541,786.3777C232.27751,787.3954,237.08202,798.06726,237.03685,799.4016C237.00975,800.2023,237.34453,800.8369,237.78935,800.8519C238.23418,800.86707,238.80266,802.4894,239.09227,804.4586C239.38194,806.42786,239.86156,808.0471,240.2174,808.0591C240.57324,808.07117,241.38757,810.3252,241.92004,813.01514C242.4524,815.7051,243.1778,817.95605,243.53363,817.96814C243.8006,817.9772,244.53497,819.9614,245.07343,822.4734C245.61487,824.89636,246.34625,826.9695,246.79108,826.9845C247.14691,826.9966,247.71848,828.52985,248.01413,830.3211C248.30673,832.20135,249.02005,834.8083,249.68661,836.1668C250.35318,837.5252,251.27017,842.00934,251.67148,845.9417C252.4183,852.82465,252.31125,853.3555,250.66483,854.6357C247.28305,857.19305,243.79587,862.8642,243.69351,865.88873C243.59421,868.8245,247.35226,878.83746,248.7576,879.4195C249.81009,879.9003,248.75632,905.7817,247.5607,906.8991C247.00888,907.41473,246.42557,911.4919,246.17712,916.20374C245.85034,923.2285,246.05103,925.1947,247.7038,928.9911C248.776,931.52124,249.94623,933.78735,250.47095,934.07227C250.90668,934.3541,251.38025,936.1515,251.66986,938.1206C251.8736,939.9978,252.51001,942.24585,253.10864,942.97864C253.70728,943.7114,254.37384,945.06995,254.61359,945.87964C254.93933,946.7811,255.71594,947.5199,256.5166,947.547C257.22827,947.57104,257.839,947.9481,257.82092,948.4818C257.80286,949.0156,261.34912,949.4918,266.68677,949.67236C268.46066,949.7324,269.909,949.768,271.11633,949.768C275.29776,949.768,276.5882,949.341,278.49872,948.02356C284.32764,944.213,284.89148,943.34143,286.03992,935.72095C286.70612,931.8247,287.62714,928.29346,288.2619,927.95874C289.62634,927.11426,290.1003,910.47577,288.793,909.62994C288.18527,909.1641,287.57132,903.6215,287.21945,895.59406C286.93253,888.2812,286.43155,882.02997,286.0847,881.75104C285.39108,881.1932,285.31717,880.7453,284.78403,867.5462C284.46396,861.212,283.9767,857.1877,283.363,856.8997C281.77975,856.3118,282.238,853.29926,283.86935,852.4638C284.77402,852.049,285.5549,850.02716,285.90305,847.6341C286.24673,845.3395,286.84033,843.49506,287.28452,843.49506C287.28632,843.49506,287.28815,843.4951,287.28995,843.4952C287.29065,843.4952,287.29135,843.49524,287.29208,843.49524C287.64938,843.49524,288.5503,840.5025,289.2949,836.88336C290.0395,833.2643,290.94037,830.2715,291.29767,830.2715C291.2984,830.2715,291.29913,830.27155,291.29984,830.27155C291.3008,830.2716,291.3018,830.2716,291.30276,830.2716C291.6595,830.2716,292.3547,828.0734,292.71085,825.4209C293.15582,822.7715,293.76273,820.57025,294.11896,820.57025C294.11993,820.57025,294.1209,820.57025,294.12186,820.5703C294.12268,820.5703,294.12347,820.5704,294.1243,820.5704C294.48175,820.5704,295.3703,817.9332,296.1027,814.67017C296.92874,811.31384,297.83475,808.2273,298.20566,807.79443C298.57956,807.2728,299.4946,803.91943,300.24063,800.29297C300.9868,796.66675,301.8068,793.4883,302.17166,793.2335C302.99344,792.6378,305.14914,786.83264,305.20932,785.05347C305.23608,784.26294,305.60687,783.5709,306.12997,783.5709C306.1367,783.5709,306.14343,783.57104,306.15018,783.5713C306.15216,783.57135,306.15417,783.5714,306.1562,783.5714C306.60342,783.5714,307.5449,781.9167,308.23666,779.81213C308.83963,777.7842,309.70352,775.9431,309.97946,775.6852C310.80112,775.0896,312.93112,767.4133,313.02145,764.7445C313.0633,763.5079,313.45007,762.4584,313.89102,762.4584C313.89413,762.4584,313.89725,762.45844,313.9004,762.45856C313.9021,762.4586,313.90378,762.4586,313.9055,762.4586C314.43872,762.4586,315.1547,759.6403,315.6234,756.28265C316.09662,752.82513,316.82166,749.8216,317.18658,749.5667C317.64038,749.315,318.16473,744.34515,318.36035,738.5628L318.71857,727.9765L333.65182,728.8381C341.83017,729.2929,362.098,730.424,378.72147,731.3426C395.88177,732.19037,409.20465,733.26447,409.45343,733.8073C409.70538,734.26117,419.03412,734.93304,431.48846,735.35443C438.1447,735.5796,442.97092,735.72754,446.47125,735.72754C454.90018,735.72754,455.64063,734.8697,455.73215,732.1668C455.76816,731.0993,456.25815,729.77997,456.81003,729.2642C457.3618,728.7486,457.9979,725.742,458.10342,722.6284C458.486,716.5851,458.486,716.5851,451.631,708.60474C449.74307,706.49255,447.75708,704.64404,447.2234,704.626C446.6007,704.60486,445.99304,704.13916,445.8302,703.68835C445.6703,703.14844,443.5564,702.4535,441.0746,702.1024L436.55554,701.41516L436.40405,690.0991C436.25586,683.94885,436.23584,676.64514,436.3291,673.8873C436.45782,670.0846,436.54416,669.1825,437.58347,669.1825C437.8571,669.1825,438.19675,669.24506,438.6206,669.3336C438.94022,669.40533,439.25684,669.4396,439.56754,669.4396C442.43622,669.4396,444.80014,666.52277,444.3468,663.2931C444.13416,661.68274,443.82178,657.7534,443.57727,654.44995C443.33582,651.0574,442.89246,648.3705,442.53662,648.3584C441.91382,648.3374,440.20892,630.28925,440.38947,624.9517C440.47675,622.3719,441.05573,621.0554,442.88605,619.6033C444.25665,618.58093,445.36932,617.2827,445.38434,616.8379C445.4024,616.3041,446.69293,615.01184,448.33636,613.82056C453.17767,610.24365,466.14853,598.03577,466.82834,596.3666C467.20636,595.58813,467.84146,594.90515,468.37125,594.90515C468.3781,594.90515,468.38498,594.9053,468.3918,594.9055C468.39383,594.9056,468.3958,594.90564,468.39783,594.90564C468.9289,594.90564,469.3632,592.5209,469.47714,589.1531C469.60358,585.4156,469.30502,583.4832,468.6834,583.4832C468.23972,583.4832,467.6314,584.46765,466.8956,586.4829C465.33078,590.61597,462.47067,593.54736,442.54022,611.3978L436.75214,616.6349L436.75214,616.6349L436.8863,591.61304C437.07553,567.6627,437.68335,560.08,439.35916,560.08C439.36545,560.08,439.37177,560.0801,439.3781,560.0803C439.38568,560.08057,439.39322,560.0807,439.40073,560.0807C439.83545,560.0807,440.1941,559.6535,440.21185,559.1288C440.248,558.0613,444.90363,552.0735,446.44916,551.1461C447.0838,550.8114,448.0926,549.95483,448.82526,549.3562C450.3644,547.84937,454.93292,546.7833,458.47278,546.7833C459.38205,546.7833,460.22348,546.85364,460.92822,547.00494C464.19876,547.73895,468.95895,551.8186,468.89572,553.68677C468.87473,554.3096,469.30148,554.8583,469.7463,554.8734C469.74857,554.8735,469.75082,554.87354,469.75308,554.87354C470.28372,554.87354,470.7086,552.7575,470.7955,550.1886C470.93997,545.9185,470.69412,545.2868,468.1835,543.15344C465.6669,541.198,464.34158,540.88586,458.11426,540.6752C457.06345,540.63965,456.1395,540.6205,455.32272,540.6205C451.71417,540.6205,450.1976,540.9938,449.0752,541.97253C448.0805,542.7317,446.9148,543.3978,446.4591,543.3978C446.45407,543.3978,446.4491,543.39777,446.4442,543.3976C446.44208,543.3975,446.43988,543.39746,446.43768,543.39746C445.98254,543.39746,444.2464,544.93585,442.4984,546.8266C440.74872,548.71906,439.01108,550.2586,438.64587,550.2586C438.64444,550.2586,438.64304,550.2586,438.64166,550.25854C438.19684,550.2435,438.46716,531.72766,439.23462,509.04285L440.62817,467.85434L443.86218,464.40134C445.6156,462.5904,447.38416,460.33453,447.6812,459.45398C447.97202,458.67084,448.5211,457.98364,448.9635,457.98364C448.9683,457.98364,448.97308,457.98373,448.97784,457.9839C448.98944,457.98428,449.00098,457.98447,449.01248,457.98447C451.7364,457.98447,451.82993,447.02435,449.00555,444.00208C448.31793,443.26636,447.74933,441.64392,447.70563,440.3066C447.7508,438.97214,447.70526,435.05185,447.82257,431.58237C447.89154,424.2817,445.92194,419.31662,442.32574,417.68088L439.95706,416.62106L440.75357,377.28262C441.12912,355.65326,442.66818,302.26807,444.14005,258.76657C445.6149,215.17606,447.04855,164.90453,447.30368,146.83371L447.5807,130.98375L441.67804,130.97112L439.06827,219.14055C437.2867,277.05966,436.1982,325.02725,436.52988,325.751C437.6111,328.01404,435.8185,378.36258,434.61697,379.65775C433.97012,380.34842,433.70486,382.92215,434.01724,386.85162C434.17288,390.15216,434.36478,397.63983,434.43607,403.4312C434.54068,413.49875,434.43082,414.1185,432.50842,415.65652C431.41074,416.51004,429.77634,417.43436,428.87766,417.67117C427.88705,417.99393,427.15732,418.50357,427.1423,418.9484C427.13034,419.30423,426.22263,419.8079,425.05405,420.12466C423.25986,420.5092,417.06772,427.1575,417.01352,428.75882C417.0045,429.02567,416.16782,430.06607,415.1561,431.01163C414.1445,431.95694,413.28354,433.70917,413.24142,434.95465C413.19965,436.19046,412.81635,437.15173,412.3758,437.15173C412.37238,437.15173,412.369,437.15167,412.36557,437.15155C412.36392,437.1515,412.36227,437.15146,412.36063,437.15146C411.38205,437.15146,409.8958,446.96832,409.5156,455.5799C409.28513,459.75812,408.84506,462.23688,408.02634,462.7436C407.39157,463.0783,406.5715,466.2568,406.05917,470.87082C405.65378,474.95395,404.99362,478.6722,404.61972,479.19382C404.24887,479.62656,403.33994,482.80222,402.5997,486.25046C401.86276,489.60983,400.9537,492.78537,400.5798,493.3071C400.20895,493.73984,399.31488,496.47058,398.59882,499.20728C397.88214,502.02356,397.00662,504.3037,396.56055,504.3037C396.55908,504.3037,396.55765,504.3037,396.55618,504.30365C396.55396,504.3036,396.55173,504.30353,396.5495,504.30353C396.19318,504.30353,395.63153,505.25983,395.32437,506.48846C394.96567,507.648,394.72388,508.17462,394.36688,508.17462C394.1269,508.17462,393.83484,507.93658,393.4202,507.49286C391.0165,504.82867,391.5915,487.83737,394.68292,472.80148C395.01605,470.85336,395.00836,468.44846,394.50775,467.45187C394.01007,466.3663,393.54083,461.80817,393.42145,457.44012C393.21613,452.98016,392.7198,449.22272,392.278,449.1187C391.75018,448.92267,391.43353,447.7541,391.4726,446.59772C391.575,443.57306,389.94757,436.393,389.2359,436.36896C388.88007,436.35687,388.21356,434.99835,387.64496,433.37616C387.07953,431.6647,385.63043,429.7454,384.23102,428.9855C382.92084,428.2288,381.36163,426.9291,380.76898,426.01846C380.1734,425.1968,378.4394,423.80215,377.03998,423.04227C375.38287,422.0065,374.27167,420.6331,373.97296,418.9307C373.75726,417.40933,373.26263,416.23477,372.9068,416.2228C372.55096,416.21072,371.83148,413.78177,371.3082,410.82513C370.78476,407.86835,370.0654,405.43927,369.70956,405.4273C369.35373,405.41522,368.63437,402.98627,368.022,400.02643C367.49857,397.06964,366.77927,394.6407,366.42337,394.62872C366.15652,394.6197,365.6619,393.44513,365.44315,392.01276C365.22446,390.58026,364.392,388.85992,363.70737,388.03522C363.0198,387.2995,362.18442,385.66803,361.95963,384.41364C361.6459,383.15616,360.88748,381.88358,360.27072,381.6846C359.657,381.39676,359.00253,379.68228,358.7039,377.98013C358.40823,376.18875,357.92264,374.74734,357.4778,374.73233C357.12198,374.72025,356.28958,373.00003,355.7391,370.8439C355.09662,368.7737,354.27325,366.7864,353.92645,366.5076C353.49066,366.22562,352.94916,363.80264,352.59473,361.11868C352.24017,358.43497,351.37604,355.02136,350.62354,353.5708C349.87402,352.0315,349.30853,350.3202,349.33264,349.60852C349.37476,348.36304,346.08124,340.41406,345.1297,339.58032C344.87183,339.30444,344.21136,337.76807,343.73175,336.1488C343.2522,334.52942,342.25092,332.53613,341.47736,331.70837C340.70074,330.9696,339.87134,329.1604,339.65265,327.72803C339.4339,326.29562,338.93927,325.12106,338.58344,325.10898C338.2276,325.09702,337.7571,323.21085,337.56845,320.88882C337.3798,318.56677,336.65744,316.22668,335.96384,315.66895C335.27017,315.11096,334.293,312.40613,333.76657,309.53833C333.23715,306.7594,332.51474,304.41943,332.06998,304.40442C331.71408,304.39246,331.29947,303.48767,330.98276,302.3192C330.52426,300.07715,321.86734,290.0764,318.63895,288.09686C317.58945,287.52704,316.09525,286.94208,315.3835,286.91803C314.67184,286.89398,314.0612,286.51703,314.07626,286.0722C314.09128,285.62738,312.77798,284.95953,311.27768,284.55255C309.68845,284.14252,307.04672,283.25165,305.46945,282.48578C303.8953,281.63092,299.83023,280.69183,296.45874,280.3106C292.99835,279.92633,290.26166,279.21027,290.27368,278.85443C290.2976,278.1481,279.63202,277.587,272.09308,277.587C268.23862,277.587,265.20148,277.73367,264.8281,278.08258C264.3682,278.5124,261.5894,279.0418,258.6417,279.29828C251.14194,279.84613,247.9742,281.3421,246.51332,285.03326C245.8304,286.79144,243.50105,289.82977,241.20485,291.8896C236.69832,296.10114,235.87227,299.4575,238.1916,304.61264C239.35274,307.1456,239.33766,307.59042,237.53914,310.7357C234.78767,315.7191,232.88715,327.14392,234.05896,331.99292C234.5235,334.057,235.51283,336.40613,236.28633,337.2339C236.96593,337.96103,237.21394,338.58658,236.79027,338.58658C236.78526,338.58658,236.78017,338.5865,236.77498,338.5863C236.7704,338.58615,236.76582,338.58606,236.7612,338.58606C236.22685,338.58606,235.39948,339.6199,234.82558,340.92505C234.15466,342.32727,232.25208,345.91443,230.3675,348.9679C226.58936,355.34155,226.5971,357.7466,230.26721,359.8301C233.50153,361.63162,234.4259,363.26614,233.94963,366.81235C233.70555,368.76355,234.02525,369.84302,234.99174,370.23206C235.78337,370.526,236.36394,371.79248,236.32481,372.94897C236.27666,374.3723,236.9522,375.46387,238.44048,376.22668C240.10362,377.0846,240.60728,377.9923,240.53203,380.2163C240.46886,382.08447,241.20323,384.06873,242.57542,385.62915C244.26086,387.58368,244.8041,387.94467,248.77034,387.94467C249.64415,387.94467,250.68411,387.92712,251.93903,387.90527C256.21808,387.78284,259.44177,387.26855,259.81866,386.65784C260.19556,386.04712,262.71057,385.4198,265.47736,385.24622C266.25064,385.19324,266.95065,385.16306,267.58325,385.16306C272.64676,385.16306,273.39075,387.09677,272.8149,394.75684L272.3253,401.33084L267.79596,403.5823C265.34894,404.83548,263.1687,406.0977,262.97876,406.44754C262.79663,406.86148,262.06522,407.0985,261.2357,407.0985C261.18628,407.0985,261.1365,407.0977,261.0865,407.09598C261.07196,407.0955,261.05698,407.09525,261.04153,407.09525C260.20435,407.09525,257.99872,407.81088,256.04456,408.70657C253.93114,409.70032,251.28404,410.24268,249.30763,410.24268C247.81401,410.24268,246.70345,409.93292,246.49571,409.2742C246.4218,408.82632,242.62065,407.98526,238.27061,407.57083C235.5733,407.27396,233.68909,407.1101,232.18053,407.1101C229.76863,407.1101,228.31699,407.529,226.03793,408.49295C223.72597,409.38013,221.33055,410.17804,220.5803,410.17804C220.56924,410.17804,220.55853,410.17786,220.54819,410.17752C220.53702,410.17715,220.52562,410.17694,220.51399,410.17694C219.78548,410.17694,218.18803,410.91464,216.92953,411.83633C215.66107,412.76538,214.39845,413.51935,214.03116,413.51935C214.02826,413.51935,214.02539,413.5193,214.0226,413.5192C214.02141,413.51917,214.0202,413.51913,214.01897,413.51913C213.65266,413.51913,211.55013,415.31326,209.34724,417.4578C206.31215,420.29422,204.89955,422.56204,204.07948,425.74063C203.46642,428.117,202.60307,430.04245,202.24518,430.04245C202.24406,430.04245,202.24295,430.04242,202.24184,430.0424C202.24083,430.04236,202.23984,430.04233,202.23883,430.04233C201.88254,430.04233,201.27869,432.15436,200.8398,434.62616C200.39668,437.1939,199.6867,439.75287,199.22687,440.18256C198.1112,441.5699,196.033,458.2432,195.64171,469.808C195.44908,475.50137,194.92168,480.5601,194.55083,480.9927C194.08794,481.5115,193.18193,484.59805,192.44188,488.04642C191.70474,491.4058,190.79568,494.58136,190.42183,495.1029C190.05092,495.53577,189.15395,498.35535,188.34297,501.2671C187.62398,504.09265,186.72096,507.0902,186.24904,507.87585C185.78023,508.5725,184.91933,510.3246,184.42635,511.7328L183.36055,514.27954L181.05493,511.35156C179.77472,509.7052,177.638,507.05005,176.35474,505.49255C174.9856,503.84314,172.50812,500.73132,170.80414,498.44702C169.01117,496.1598,167.12636,493.95868,166.60463,493.58475C165.99391,493.2078,165.4933,492.2112,165.51735,491.49954C165.54146,490.78787,165.0348,489.96915,164.3321,489.67813C163.62947,489.38724,162.61006,487.92776,162.12447,486.48636C161.54988,485.0419,160.8774,483.86136,160.52156,483.84927C160.25465,483.84024,158.90053,481.746,157.47249,479.204C156.13039,476.7538,154.26953,473.84097,153.50507,472.74637C152.65155,471.6487,151.98499,470.2902,152.0091,469.57852C152.03015,468.95584,151.69238,468.41006,151.33655,468.39798C150.89178,468.38297,150.14526,466.75467,149.58875,464.7764C149.12122,462.80118,148.28583,461.16983,147.841,461.1547C147.30725,461.13663,146.96643,460.67996,146.9815,460.23514C146.99957,459.70132,146.27112,457.5392,145.35883,455.54895C144.44946,453.46973,143.74817,450.50708,143.8023,448.90576C143.92572,445.25842,142.33746,436.92188,141.53687,436.89478C141.18103,436.8827,140.71344,434.90747,140.4419,432.40466C140.1673,429.9906,139.53387,427.6537,138.92322,427.27673C137.7049,426.43396,133.30003,417.11142,133.35722,415.42123C133.37529,414.88742,133.0374,414.34177,132.50371,414.3237C132.05888,414.30856,131.63518,413.67075,131.65923,412.95908C131.70738,411.53574,130.38036,408.64096,128.50145,406.2617C127.81688,405.43698,126.3678,403.51773,125.25946,402.0552L123.125725,399.31116L126.30951,318.3725C128.08437,273.81244,130.86948,207.28833,132.38235,170.46785L134.07347,130.03395L134.07481,130.03395Q131.4034,129.91353,128.77235,129.79366 Z"/> </g> </g> </svg>